<?xml version="1.0" encoding="UTF-8"?>
<svg fill="none" viewBox="0 0 1320 532" xmlns="http://www.w3.org/2000/svg">
<mask id="j" x="0" y="0" width="1320" height="532" style="mask-type:alpha" maskUnits="userSpaceOnUse">
<rect width="1320" height="532" rx="48" fill="#1D9E43"/>
</mask>
<g mask="url(#j)">
<rect y="-103.04" width="1320" height="738.53" fill="url(#h)"/>
<path d="m651.79 531.86c-2.137 0.377-2.881-0.014-2.217-1.173 2.164-0.377 2.908 0.014 2.217 1.173z" fill="#fff" fill-opacity=".02"/>
<path d="m486.46 531.63c-1.501-0.348-2.975-0.732-4.435-1.152-0.651-1.245 1.275-1.913 2.908-2.518 1.699 1.032 1.447 2.404 1.527 3.67z" fill="#fff" fill-opacity=".02"/>
<path d="m783.23 530.49c-2.151 0.363-2.881-0.035-2.204-1.194 2.165-0.363 2.908 0.035 2.204 1.194z" fill="#fff" fill-opacity=".02"/>
<path d="m451.05 529.13c-1.872 0.313-2.496-0.028-1.898-1.024 1.885-0.306 2.523 0.036 1.898 1.024z" fill="#fff" fill-opacity=".02"/>
<path d="m533.35 525.5c-1.846 0.328-2.497-7e-3 -1.939-1.01 1.872-0.327 2.51 0.015 1.939 1.01z" fill="#fff" fill-opacity=".02"/>
<path d="m512.58 524.57c-2.616-0.456-5.298-1.103-6.188-2.646 2.138-0.057 4.25-0.107 6.361-0.149-0.04 0.697-0.133 2.09-0.173 2.795z" fill="#fff" fill-opacity=".02"/>
<path d="m797.62 521.08c-1.328 0.996-4.727-0.128-3.293-1.18 1.341-0.989 4.754 0.128 3.293 1.18z" fill="#fff" fill-opacity=".02"/>
<path d="m907.57 511.22c-1.846 0.32-2.483-0.021-1.912-1.024 1.859-0.32 2.496 0.029 1.912 1.024z" fill="#fff" fill-opacity=".02"/>
<path d="m754.17 510.5c-2.164 0.356-2.895-0.042-2.204-1.201 2.191-0.356 2.921 0.042 2.204 1.201z" fill="#fff" fill-opacity=".02"/>
<path d="m1108.2 504.48c-0.66 1.942-3.08 3.264-6.7 3.648 1.11-1.735 3.32-3.136 6.7-3.648z" fill="#fff" fill-opacity=".02"/>
<path d="m1111.6 504.95c-3.75 0.832-3.59-1.664-3.67-2.966 1.1 0.96 5.55 1.636 3.67 2.966z" fill="#fff" fill-opacity=".02"/>
<path d="m1165.8 494.14c-2.15 0.384-2.9-7e-3 -2.24-1.173 2.16-0.377 2.91 0.014 2.24 1.173z" fill="#fff" fill-opacity=".02"/>
<path d="m833.82 491.3c-2.151 0.384-2.894-7e-3 -2.23-1.167 2.164-0.384 2.908 0 2.23 1.167z" fill="#fff" fill-opacity=".02"/>
<path d="m1013 489.9c-2.16 0.363-2.89-0.035-2.22-1.195 2.18-0.355 2.93 0.036 2.22 1.195z" fill="#fff" fill-opacity=".02"/>
<path d="m67.618 489.95c-2.1511 0.348-2.8814-0.057-2.191-1.209 2.1777-0.349 2.9081 0.05 2.191 1.209z" fill="#fff" fill-opacity=".02"/>
<path d="m689.85 487.77c-1.845 0.32-2.483-0.022-1.899-1.025 1.859-0.32 2.497 0.022 1.899 1.025z" fill="#fff" fill-opacity=".02"/>
<path d="m425.02 487.05c-1.78 0.775-3.679-0.918-1.939-1.55 1.806-0.776 3.705 0.917 1.939 1.55z" fill="#fff" fill-opacity=".02"/>
<path d="m659.9 484.92c-2.151 0.369-2.895-0.022-2.218-1.181 2.165-0.377 2.908 0.014 2.218 1.181z" fill="#fff" fill-opacity=".02"/>
<path d="m295.89 482.64c-1.195 0.868-4.422-0.099-3.028-1.059 1.248-0.854 4.475 0.092 3.028 1.059z" fill="#fff" fill-opacity=".02"/>
<path d="m164.58 466.39c-1.288 0.982-4.807-0.071-3.293-1.138 1.328-0.974 4.847 0.064 3.293 1.138z" fill="#fff" fill-opacity=".02"/>
<path d="m515.05 465.76c-2.164 0.363-2.908-0.036-2.204-1.195 2.177-0.348 2.921 0.05 2.204 1.195z" fill="#fff" fill-opacity=".02"/>
<path d="m1291.9 465.13c-2.17 0.363-2.92-0.035-2.2-1.187 2.16-0.356 2.89 0.035 2.2 1.187z" fill="#fff" fill-opacity=".02"/>
<path d="m484.53 463.58c-2.151 0.377-2.895-0.014-2.218-1.181 2.165-0.37 2.908 0.022 2.218 1.181z" fill="#fff" fill-opacity=".02"/>
<path d="m1179 462.14c-2.15 0.37-2.9-0.021-2.22-1.181 2.17-0.369 2.91 0.022 2.22 1.181z" fill="#fff" fill-opacity=".02"/>
<path d="m673.55 461.84c-1.076-0.057-3.227-0.171-4.302-0.227 0.013-0.541 0.026-1.622 0.026-2.162 1.023-0.015 3.068-0.029 4.103-0.043 0.04 0.611 0.133 1.828 0.173 2.432z" fill="#fff" fill-opacity=".02"/>
<path d="m1149.8 457.13c-2.18 0.334-2.91-0.071-2.18-1.209 2.21-0.341 2.92 0.064 2.18 1.209z" fill="#fff" fill-opacity=".02"/>
<path d="m702.32 456.58c-2.151 0.384-2.895-7e-3 -2.218-1.166 2.165-0.384 2.908 7e-3 2.218 1.166z" fill="#fff" fill-opacity=".02"/>
<path d="m1274.8 455.72c-2.14 0.399-2.89 0.015-2.26-1.152 2.14-0.398 2.9-0.014 2.26 1.152z" fill="#fff" fill-opacity=".02"/>
<path d="m589.8 452.96c-0.651 0.74-1.328 1.479-1.992 2.226-1.115-0.796-2.257-1.586-3.413-2.375 1.806 0.035 3.612 0.078 5.405 0.149z" fill="#fff" fill-opacity=".02"/>
<path d="m1027.5 452.13c-1.33 0.96-4.88-0.085-3.28-1.145 1.33-0.946 4.9 0.085 3.28 1.145z" fill="#fff" fill-opacity=".02"/>
<path d="m629.41 452.24c-2.138 0.391-2.895 7e-3 -2.231-1.16 2.151-0.391 2.895-7e-3 2.231 1.16z" fill="#fff" fill-opacity=".02"/>
<path d="m1179 450.16c-2.16 0.348-2.89-0.05-2.16-1.202 2.18-0.349 2.89 0.05 2.16 1.202z" fill="#fff" fill-opacity=".02"/>
<path d="m712.29 445.15c2.47 1.401 2.483 3.122 0 4.537-1.381-0.782-2.775-1.557-4.169-2.333 1.381-0.739 2.775-1.472 4.169-2.204z" fill="#fff" fill-opacity=".02"/>
<path d="m504.44 448.03c-1.872 0.313-2.496-0.021-1.899-1.017 1.886-0.313 2.523 0.029 1.899 1.017z" fill="#fff" fill-opacity=".02"/>
<path d="m487.37 445.65c-1.394 0.96-1.739 3.058-4.873 2.496-0.903-0.675-1.74-1.372-2.536-2.098 2.483-0.149 4.939-0.277 7.409-0.398z" fill="#fff" fill-opacity=".02"/>
<path d="m434.25 444.54c-1.633 0.676-3.466 1.174-5.205 1.778 0.026-0.675 0.079-2.034 0.106-2.71 1.819 0.15 3.519 0.456 5.099 0.932z" fill="#fff" fill-opacity=".02"/>
<path d="m621.43 444.27c-2.138 0.398-2.895 0.014-2.271-1.152 2.165-0.391 2.921-7e-3 2.271 1.152z" fill="#fff" fill-opacity=".02"/>
<path d="m414.18 443.65c-2.151 0.363-2.881-0.036-2.191-1.195 2.178-0.356 2.908 0.043 2.191 1.195z" fill="#fff" fill-opacity=".02"/>
<path d="m309.23 441.42c-0.172 1.479-2.164 1.842-4.66 1.863 0.185-0.448 0.531-1.344 0.703-1.792 1.328-0.015 2.643-0.043 3.957-0.071z" fill="#fff" fill-opacity=".02"/>
<path d="m293.43 442.32c-1.846 0.355-2.51 0.028-1.979-0.975 1.86-0.348 2.523-0.028 1.979 0.975z" fill="#fff" fill-opacity=".02"/>
<path d="m711.44 437.36c-1.327 0.036-3.97 0.1-5.285 0.128 0.16-0.725 0.492-2.176 0.651-2.902 1.819 0.79 3.546 1.65 4.634 2.774z" fill="#fff" fill-opacity=".02"/>
<path d="m390.25 435.87c-2.138 0.377-2.882-0.022-2.218-1.181 2.164-0.37 2.908 0.022 2.218 1.181z" fill="#fff" fill-opacity=".02"/>
<path d="m581.6 435.06c-2.151 0.377-2.895-0.022-2.244-1.181 2.164-0.37 2.908 0.021 2.244 1.181z" fill="#fff" fill-opacity=".02"/>
<path d="m1167.1 433.66c-2.16 0.362-2.9-0.036-2.19-1.188 2.18-0.363 2.89 0.028 2.19 1.188z" fill="#fff" fill-opacity=".02"/>
<path d="m1039.4 433.06c-0.2-2.368-3.98 1.096 0 0z" fill="#fff" fill-opacity=".02"/>
<path d="m1038.3 430.84c-1.32 0.932-4.9-0.05-3.36-1.124 1.31-0.953 4.91 0.036 3.36 1.124z" fill="#fff" fill-opacity=".02"/>
<path d="m263.94 425.97c-1.248 1.052-2.695 2.048-4.753 2.695-0.067-0.668-0.173-2.006-0.226-2.674 1.248-7e-3 3.731-0.021 4.979-0.021z" fill="#fff" fill-opacity=".02"/>
<path d="m608.02 425.85c-2.177 0.342-2.894-0.064-2.164-1.209 2.191-0.341 2.921 0.064 2.164 1.209z" fill="#fff" fill-opacity=".02"/>
<path d="m1315.8 421.64c-2.18 0.355-2.89-0.043-2.18-1.195 2.17-0.356 2.9 0.042 2.18 1.195z" fill="#fff" fill-opacity=".02"/>
<path d="m767.28 420.87c-2.164 0.363-2.895-0.035-2.178-1.194 2.191-0.349 2.922 0.049 2.178 1.194z" fill="#fff" fill-opacity=".02"/>
<path d="m1158.4 420.23c-1.28 0.889-4.34-0.171-2.91-1.117 1.26-0.889 4.3 0.185 2.91 1.117z" fill="#fff" fill-opacity=".02"/>
<path d="m1034.1 419.55c-1.75 0.747-3.78-0.882-2.03-1.543 1.75-0.733 3.78 0.889 2.03 1.543z" fill="#fff" fill-opacity=".02"/>
<path d="m189.82 419.58c-1.885 0.285-2.51-0.056-1.846-1.038 1.912-0.284 2.523 0.064 1.846 1.038z" fill="#fff" fill-opacity=".02"/>
<path d="m682.39 418.08c-2.151 0.392-2.908 8e-3 -2.257-1.152 2.164-0.391 2.921-7e-3 2.257 1.152z" fill="#fff" fill-opacity=".02"/>
<path d="m778.3 417.57c-1.036 0.05-3.121 0.142-4.17 0.192-0.053-0.69-0.146-2.07-0.199-2.752 1.089 0.085 3.24 0.256 4.329 0.341 0 0.555 0.026 1.664 0.04 2.219z" fill="#fff" fill-opacity=".02"/>
<path d="m461.84 416.69c-2.164 0.37-2.908-0.028-2.23-1.188 2.177-0.355 2.921 0.043 2.23 1.188z" fill="#fff" fill-opacity=".02"/>
<path d="m1309.1 415.1c-1.26 0.69-4.21 0.505-4.57-0.547 0.35-1.451 6.12-0.91 4.57 0.547z" fill="#fff" fill-opacity=".02"/>
<path d="m1302.8 415.17c-2.13 0.391-2.88 0-2.23-1.159 2.14-0.391 2.9 0 2.23 1.159z" fill="#fff" fill-opacity=".02"/>
<path d="m3.6821 415.2c-1.2216 1.017-4.8467 0.036-3.3064-1.053 1.2482-1.01 4.8732-0.035 3.3064 1.053z" fill="#fff" fill-opacity=".02"/>
<path d="m634.61 412.96c-2.138 0.385-2.881-0.014-2.217-1.173 2.151-0.377 2.894 0.014 2.217 1.173z" fill="#fff" fill-opacity=".02"/>
<path d="m1019.6 412.44c-2.16 0.37-2.91-0.029-2.22-1.181 2.17-0.362 2.91 0.036 2.22 1.181z" fill="#fff" fill-opacity=".02"/>
<path d="m505.74 412.32c-2.151 0.37-2.881-0.028-2.177-1.188 2.178-0.362 2.908 0.029 2.177 1.188z" fill="#fff" fill-opacity=".02"/>
<path d="m967.95 411.56c-2.165 0.369-2.908-0.022-2.244-1.174 2.177-0.37 2.921 0.021 2.244 1.174z" fill="#fff" fill-opacity=".02"/>
<path d="m278.71 411.09c-2.165 0.348-2.882-0.057-2.165-1.202 2.191-0.349 2.908 0.05 2.165 1.202z" fill="#fff" fill-opacity=".02"/>
<path d="m776.71 409.48c-2.165 0.369-2.895-0.022-2.218-1.181 2.178-0.37 2.908 0.028 2.218 1.181z" fill="#fff" fill-opacity=".02"/>
<path d="m841.41 408.17c-1.859 0.32-2.51-0.014-1.925-1.01 1.872-0.32 2.523 0.014 1.925 1.01z" fill="#fff" fill-opacity=".02"/>
<path d="m212.13 407.57c-2.098 0.448-3.227-1.437-1.022-1.722 2.124-0.441 3.24 1.437 1.022 1.722z" fill="#fff" fill-opacity=".02"/>
<path d="m550.94 406.69c-2.138 0.391-2.895 0-2.244-1.166 2.164-0.384 2.908 0 2.244 1.166z" fill="#fff" fill-opacity=".02"/>
<path d="m625.44 405.99c-2.151 0.363-2.882-0.036-2.191-1.195 2.177-0.37 2.908 0.036 2.191 1.195z" fill="#fff" fill-opacity=".02"/>
<path d="m1051.3 403.8c-1.31 0.982-4.86-0.064-3.28-1.13 1.33-0.953 4.89 0.071 3.28 1.13z" fill="#fff" fill-opacity=".02"/>
<path d="m986.49 401.04c-2.164 0.363-2.908-0.028-2.204-1.187 2.164-0.363 2.908 0.035 2.204 1.187z" fill="#fff" fill-opacity=".02"/>
<path d="m440.64 400.3c-2.164 0.348-2.894-0.05-2.177-1.202 2.191-0.342 2.921 0.057 2.177 1.202z" fill="#fff" fill-opacity=".02"/>
<path d="m763.42 398.2c-2.151 0.363-2.882-0.036-2.191-1.195 2.164-0.363 2.895 0.036 2.191 1.195z" fill="#fff" fill-opacity=".02"/>
<path d="m1194.2 391.79c-2.38 1.743-5.55 3.215-9.59 3.677-1.83-1.124-0.83-2.759-1.07-4.111 0.83-0.967 1.67-1.934 2.47-2.909 0.29 0.32 0.86 0.961 1.15 1.273 1.18-0.199 2.34-0.426 3.48-0.682-0.12 0.583-0.3 1.159-0.56 1.735 1.04 0.256 3.1 0.761 4.12 1.017z" fill="#fff" fill-opacity=".02"/>
<path d="m1031.5 394.64c-1.35 0.925-4.88-0.092-3.36-1.166 1.35-0.925 4.89 0.113 3.36 1.166z" fill="#fff" fill-opacity=".02"/>
<path d="m638.49 394.58c-1.275 0.981-4.873-0.028-3.307-1.102 1.302-0.982 4.887 0.021 3.307 1.102z" fill="#fff" fill-opacity=".02"/>
<path d="m972.01 391.64c-2.125 0.419-2.895 0.042-2.324-1.131 2.138-0.413 2.922-0.036 2.324 1.131z" fill="#fff" fill-opacity=".02"/>
<path d="m760.76 389.62c-2.152 0.362-2.895-0.029-2.205-1.188 2.165-0.37 2.908 0.028 2.205 1.188z" fill="#fff" fill-opacity=".02"/>
<path d="m1070.1 386.15c-2.15 0.384-2.9 0-2.24-1.167 2.15-0.384 2.91 7e-3 2.24 1.167z" fill="#fff" fill-opacity=".02"/>
<path d="m1132.6 384.67c-2.18 0.363-2.91-0.036-2.22-1.188 2.17-0.363 2.91 0.036 2.22 1.188z" fill="#fff" fill-opacity=".02"/>
<path d="m1188 381.72c-1.28 1.124-4.57-0.107-3.11-1.145 1.27-1.124 4.58 0.107 3.11 1.145z" fill="#fff" fill-opacity=".02"/>
<path d="m759.26 381.15c-1.7-0.498-1.687-0.981 0.053-1.451 1.713 0.498 1.699 0.982-0.053 1.451z" fill="#fff" fill-opacity=".02"/>
<path d="m225.77 381.01c-2.165 0.356-2.895-0.042-2.204-1.195 2.177-0.355 2.921 0.043 2.204 1.195z" fill="#fff" fill-opacity=".02"/>
<path d="m446.07 379.65c-2.151 0.377-2.895-0.015-2.231-1.181 2.178-0.37 2.921 0.021 2.231 1.181z" fill="#fff" fill-opacity=".02"/>
<path d="m841.85 379.57c-2.018-0.64-3.611-1.543-4.793-2.631h5.086c-0.08 0.661-0.213 1.977-0.293 2.631z" fill="#fff" fill-opacity=".02"/>
<path d="m716.78 376.88c-2.178 0.341-2.895-0.064-2.152-1.224 2.178-0.327 2.895 0.079 2.152 1.224z" fill="#fff" fill-opacity=".02"/>
<path d="m1291.8 375.34c-2.18 0.356-2.9-0.042-2.17-1.195 2.19-0.348 2.91 0.05 2.17 1.195z" fill="#fff" fill-opacity=".02"/>
<path d="m1038.2 375.42c-2.16 0.377-2.89-0.021-2.2-1.18 2.16-0.37 2.89 0.028 2.2 1.18z" fill="#fff" fill-opacity=".02"/>
<path d="m740.43 375.5c-1.208 0.925-4.302-0.121-2.934-1.074 1.221-0.924 4.315 0.128 2.934 1.074z" fill="#fff" fill-opacity=".02"/>
<path d="m795.28 373.26c-2.138 0.384-2.895 0-2.244-1.173 2.164-0.384 2.908 7e-3 2.244 1.173z" fill="#fff" fill-opacity=".02"/>
<path d="m746.1 373.3c-2.151 0.377-2.895-0.014-2.231-1.18 2.164-0.37 2.908 0.021 2.231 1.18z" fill="#fff" fill-opacity=".02"/>
<path d="m81.812 373.34c-0.1461-2.375-3.957 1.081 0 0z" fill="#fff" fill-opacity=".02"/>
<path d="m262.6 372.67c-2.775 0.598-3.081-1.806-0.651-2.062 2.749-0.548 3.041 1.785 0.651 2.062z" fill="#fff" fill-opacity=".02"/>
<path d="m475.23 371.84c-2.164 0.377-2.894-0.022-2.217-1.181 2.178-0.37 2.921 0.028 2.217 1.181z" fill="#fff" fill-opacity=".02"/>
<path d="m1010.4 369.01c-2.18 0.363-2.92-0.028-2.24-1.188 2.17-0.362 2.92 0.036 2.24 1.188z" fill="#fff" fill-opacity=".02"/>
<path d="m818.64 366.08c0.239 0.775 0.093 1.558-0.252 2.312-2.496-0.164-4.847-0.633-7.317-0.911 1.899-1.216 4.874-1.252 7.569-1.401z" fill="#fff" fill-opacity=".02"/>
<path d="m161.87 368.14c-2.165 0.342-2.882-0.064-2.151-1.209 2.204-0.341 2.921 0.064 2.151 1.209z" fill="#fff" fill-opacity=".02"/>
<path d="m1001.3 367.37c-1.22 0.91-4.279-0.157-2.938-1.096 1.235-0.917 4.318 0.143 2.938 1.096z" fill="#fff" fill-opacity=".02"/>
<path d="m832.53 366.95c-2.164 0.377-2.908-0.014-2.244-1.174 2.165-0.376 2.922 0.015 2.244 1.174z" fill="#fff" fill-opacity=".02"/>
<path d="m666.42 365.31c-1.952 0.803-4.116-1.01-2.125-1.7 1.979-0.804 4.13 1.017 2.125 1.7z" fill="#fff" fill-opacity=".02"/>
<path d="m573.7 364.7c-1.753 0.725-3.824-0.889-2.018-1.536 1.766-0.719 3.85 0.896 2.018 1.536z" fill="#fff" fill-opacity=".02"/>
<path d="m1202.8 364.07c-2.18 0.356-2.89-0.042-2.18-1.194 2.18-0.356 2.9 0.042 2.18 1.194z" fill="#fff" fill-opacity=".02"/>
<path d="m935.9 364.1c-2.138 0.398-2.908 0.014-2.298-1.152 2.152-0.398 2.922-0.014 2.298 1.152z" fill="#fff" fill-opacity=".02"/>
<path d="m801.56 364.08c-1.394 0.982-4.754-0.192-3.187-1.223 1.395-0.968 4.767 0.199 3.187 1.223z" fill="#fff" fill-opacity=".02"/>
<path d="m150.1 361.28c-1.235 1.38-3.108 2.439-6.148 2.383-0.12-0.591-0.372-1.764-0.492-2.355 2.218-0.014 4.435-0.021 6.64-0.028z" fill="#fff" fill-opacity=".02"/>
<path d="m758.53 362.82c-1.115 0.014-3.346 0.042-4.461 0.056 0-0.611-0.014-1.834-0.014-2.446 1.103 0 3.32-7e-3 4.436-7e-3 0 0.597 0.026 1.799 0.039 2.397z" fill="#fff" fill-opacity=".02"/>
<path d="m707.66 362.62c-2.164 0.363-2.895-0.036-2.191-1.195 2.164-0.363 2.895 0.036 2.191 1.195z" fill="#fff" fill-opacity=".02"/>
<path d="m782.02 361.22c-2.165 0.363-2.909-0.035-2.205-1.188 2.178-0.362 2.908 0.029 2.205 1.188z" fill="#fff" fill-opacity=".02"/>
<path d="m62.719 361.54c-1.0623-0.064-3.1737-0.185-4.2227-0.249 0.0133-0.527 0.0399-1.593 0.0532-2.127 1.0357 0 3.0938-7e-3 4.1296-7e-3 0 0.598 0.0266 1.785 0.0399 2.383z" fill="#fff" fill-opacity=".02"/>
<path d="m549.56 358.32c-2.151 0.363-2.882-0.036-2.178-1.195 2.178-0.356 2.908 0.043 2.178 1.195z" fill="#fff" fill-opacity=".02"/>
<path d="m407.34 358.18c-2.111-0.157-2.164-2.248 0.067-2.305 2.138 0.164 2.177 2.241-0.067 2.305z" fill="#fff" fill-opacity=".02"/>
<path d="m816.75 356.9c2.045-2.134-4.422-0.1 0 0z" fill="#fff" fill-opacity=".02"/>
<path d="m917.39 355.91c-1.7 0.732-3.824-0.854-2.164-1.551 1.726-0.732 3.837 0.861 2.164 1.551z" fill="#fff" fill-opacity=".02"/>
<path d="m1063.4 355.36c-1.2 0.981-4.21-0.135-2.9-1.081 1.2-0.967 4.21 0.142 2.9 1.081z" fill="#fff" fill-opacity=".02"/>
<path d="m434.33 354.44c-1.407-0.306-2.828-0.612-4.262-0.925 0.093-0.526 0.292-1.578 0.385-2.112 1.208-0.071 3.638-0.227 4.847-0.299-0.306 1.11-0.638 2.227-0.97 3.336z" fill="#fff" fill-opacity=".02"/>
<path d="m916.15 352.61c-2.178 0.355-2.895-0.043-2.178-1.195 2.178-0.356 2.908 0.05 2.178 1.195z" fill="#fff" fill-opacity=".02"/>
<path d="m718.24 352.55c-1.978 0.847-3.904-1.052-2.111-1.756 2.005-0.847 3.957 1.059 2.111 1.756z" fill="#fff" fill-opacity=".02"/>
<path d="m812.54 351.2c-2.231 0.348-3.452-1.672-1.075-1.97 2.244-0.363 3.425 1.671 1.075 1.97z" fill="#fff" fill-opacity=".02"/>
<path d="m731.5 351.23c-1.74-0.462-1.766-0.946-0.053-1.451 1.766 0.462 1.779 0.946 0.053 1.451z" fill="#fff" fill-opacity=".02"/>
<path d="m192.36 348.55c-1.819 0.989-3.917 1.821-6.134 2.546-0.186-0.668-0.558-1.998-0.731-2.667 2.298 0.029 4.595 0.071 6.865 0.121z" fill="#fff" fill-opacity=".02"/>
<path d="m1112.8 349.83c-2.18 0.363-2.91-0.035-2.19-1.194 2.16-0.363 2.89 0.035 2.19 1.194z" fill="#fff" fill-opacity=".02"/>
<path d="m455.22 349.75c-1.275 0.96-4.94 0.014-3.333-1.081 1.288-0.968 4.94-7e-3 3.333 1.081z" fill="#fff" fill-opacity=".02"/>
<path d="m1074.1 347.78c-2.16 0.377-2.9-0.014-2.21-1.173 2.16-0.377 2.9 0.014 2.21 1.173z" fill="#fff" fill-opacity=".02"/>
<path d="m774.21 347.59c-1.966 0.804-4.05-1.038-2.125-1.735 1.978-0.797 4.063 1.045 2.125 1.735z" fill="#fff" fill-opacity=".02"/>
<path d="m87.959 346.44c-1.1818 0.015-3.5454 0.036-4.7272 0.05 0.1594-0.569 0.4515-1.7 0.6109-2.261 0.9826-0.05 2.9611-0.143 3.9569-0.185 0.0399 0.597 0.1195 1.799 0.1594 2.396z" fill="#fff" fill-opacity=".02"/>
<path d="m58.177 344.62c-1.8324 0.291-3.7312 0.491-5.6832 0.604 0.81-0.974 0.3453-2.944 3.4126-2.503 1.9785-0.199 3.5188 1.01 2.2706 1.899z" fill="#fff" fill-opacity=".02"/>
<path d="m596.48 343.34c-2.43-0.476-4.329-1.33-5.391-2.617 1.394-0.071 4.182-0.228 5.563-0.299-0.039 0.726-0.132 2.184-0.172 2.916z" fill="#fff" fill-opacity=".02"/>
<path d="m523.24 342.71c-2.151 0.363-2.881-0.036-2.177-1.195 2.178-0.356 2.908 0.043 2.177 1.195z" fill="#fff" fill-opacity=".02"/>
<path d="m1244 341.74c-2 0.796-4.07-1.053-2.06-1.721 2-0.797 4.06 1.059 2.06 1.721z" fill="#fff" fill-opacity=".02"/>
<path d="m994.44 341.86c-2.018 0.342-3.2-1.493-1.049-1.792 2.019-0.341 3.187 1.501 1.049 1.792z" fill="#fff" fill-opacity=".02"/>
<path d="m861.73 341.28c-2.152 0.384-2.895-7e-3 -2.231-1.173 2.164-0.377 2.908 0.014 2.231 1.173z" fill="#fff" fill-opacity=".02"/>
<path d="m297.24 340.47c-2.152 0.348-2.869-0.057-2.138-1.209 2.191-0.335 2.908 0.064 2.138 1.209z" fill="#fff" fill-opacity=".02"/>
<path d="m742.44 339.83c-2.164 0.356-2.895-0.049-2.178-1.202 2.191-0.348 2.908 0.05 2.178 1.202z" fill="#fff" fill-opacity=".02"/>
<path d="m792.36 338.98c-1.779 0.96-4.767-0.69-2.948-1.621 1.793-0.96 4.78 0.683 2.948 1.621z" fill="#fff" fill-opacity=".02"/>
<path d="m898.64 336.85c-1.912 0.804-4.17-0.967-2.231-1.693 1.925-0.796 4.196 0.975 2.231 1.693z" fill="#fff" fill-opacity=".02"/>
<path d="m764.04 337.83c-2.085-0.797-3.93-1.757-5.776-2.71 1.354-0.064 4.063-0.199 5.418-0.263 0.093 0.74 0.265 2.226 0.358 2.973z" fill="#fff" fill-opacity=".02"/>
<path d="m407.62 335.52c-2.138 0.391-2.895 7e-3 -2.258-1.159 2.165-0.391 2.922 0 2.258 1.159z" fill="#fff" fill-opacity=".02"/>
<path d="m979.98 334.22c-2.178 0.362-2.895-0.029-2.178-1.188 2.164-0.363 2.895 0.035 2.178 1.188z" fill="#fff" fill-opacity=".02"/>
<path d="m544.4 334.26c2.071-2.112-4.435-0.114 0 0z" fill="#fff" fill-opacity=".02"/>
<path d="m1237.4 331.94c-1.74 0.355-3.6 0.426-5.44 0.59 0.36-1.195 0.71-2.39 1.07-3.585 1.71 0.882 3.44 1.807 4.37 2.995z" fill="#fff" fill-opacity=".02"/>
<path d="m106.42 333.06c-1.208-0.113-3.652-0.334-4.873-0.448 1.447-0.917 3.054-1.756 4.74-2.546 0.027 0.747 0.106 2.248 0.133 2.994z" fill="#fff" fill-opacity=".02"/>
<path d="m42.057 332.7c-1.3013 1.031-4.7272-0.107-3.1869-1.153 1.3411-1.017 4.767 0.114 3.1869 1.153z" fill="#fff" fill-opacity=".02"/>
<path d="m683.49 332c-5.338-0.241-6.427-3.101-6.772-5.433 4.024 1.059 6.361 3.065 6.772 5.433z" fill="#fff" fill-opacity=".02"/>
<path d="m666.44 331.3c-2.165 0.363-2.895-0.035-2.191-1.195 2.177-0.355 2.908 0.043 2.191 1.195z" fill="#fff" fill-opacity=".02"/>
<path d="m319.92 331.38c-2.138 0.377-2.881-0.014-2.217-1.18 2.164-0.37 2.908 0.021 2.217 1.18z" fill="#fff" fill-opacity=".02"/>
<path d="m495.08 330.65c-2.151 0.348-2.881-0.05-2.151-1.209 2.178-0.342 2.895 0.064 2.151 1.209z" fill="#fff" fill-opacity=".02"/>
<path d="m712.82 329.86c-2.032 0.84-3.838-1.102-2.032-1.792 2.032-0.825 3.838 1.117 2.032 1.792z" fill="#fff" fill-opacity=".02"/>
<path d="m39.758 329.85c-2.1379 0.384-2.8815 0-2.2308-1.166 2.1777-0.384 2.9213 7e-3 2.2308 1.166z" fill="#fff" fill-opacity=".02"/>
<path d="m800.45 328.42c-1.753 0.918-4.926-0.625-3.028-1.578 1.767-0.953 4.887 0.618 3.028 1.578z" fill="#fff" fill-opacity=".02"/>
<path d="m383.33 328.33c-1.793 0.818-3.599-0.918-1.952-1.572 1.792-0.79 3.638 0.932 1.952 1.572z" fill="#fff" fill-opacity=".02"/>
<path d="m702.37 327.73c-2.151 0.377-2.882-0.021-2.204-1.18 2.164-0.37 2.908 0.028 2.204 1.18z" fill="#fff" fill-opacity=".02"/>
<path d="m739.41 327.02c-2.164 0.363-2.895-0.028-2.204-1.195 2.178-0.355 2.908 0.043 2.204 1.195z" fill="#fff" fill-opacity=".02"/>
<path d="m496.34 327.08c-2.165 0.356-2.895-0.043-2.205-1.202 2.178-0.348 2.909 0.05 2.205 1.202z" fill="#fff" fill-opacity=".02"/>
<path d="m503.43 325.58c2.032-2.119-4.435-0.078 0 0z" fill="#fff" fill-opacity=".02"/>
<path d="m603.99 324.71c-1.952 0.811-4.076-1.017-2.111-1.707 1.979-0.81 4.103 1.024 2.111 1.707z" fill="#fff" fill-opacity=".02"/>
<path d="m54.273 324.87c-2.1511 0.37-2.8814-0.028-2.2042-1.188 2.191-0.362 2.9213 0.036 2.2042 1.188z" fill="#fff" fill-opacity=".02"/>
<path d="m159.25 324.23c-2.152 0.384-2.895-7e-3 -2.218-1.166 2.178-0.377 2.908 0.014 2.218 1.166z" fill="#fff" fill-opacity=".02"/>
<path d="m1171 323.46c-2.17 0.37-2.91-0.021-2.23-1.187 2.16-0.363 2.9 0.028 2.23 1.187z" fill="#fff" fill-opacity=".02"/>
<path d="m1035.6 322.87c-2.21 0.349-2.92-0.056-2.17-1.201 2.18-0.342 2.91 0.056 2.17 1.201z" fill="#fff" fill-opacity=".02"/>
<path d="m1046.2 319.84c-2.13 0.412-2.89 0.035-2.27-1.138 2.16-0.399 2.91-0.022 2.27 1.138z" fill="#fff" fill-opacity=".02"/>
<path d="m562.68 319.79c-1.222 0.896-4.329-0.142-2.948-1.088 1.248-0.889 4.368 0.135 2.948 1.088z" fill="#fff" fill-opacity=".02"/>
<path d="m360.93 319.18c-1.275 0.975-4.9-7e-3 -3.32-1.095 1.301-0.967 4.913 0.014 3.32 1.095z" fill="#fff" fill-opacity=".02"/>
<path d="m930.82 317.71c-2.138 0.398-2.895 0.014-2.271-1.152 2.152-0.391 2.922-7e-3 2.271 1.152z" fill="#fff" fill-opacity=".02"/>
<path d="m430.11 316.38c-2.164 0.37-2.908-0.022-2.231-1.188 2.178-0.363 2.922 0.028 2.231 1.188z" fill="#fff" fill-opacity=".02"/>
<path d="m1040.8 315.58c-2.17 0.341-2.89-0.064-2.15-1.216 2.18-0.334 2.9 0.071 2.15 1.216z" fill="#fff" fill-opacity=".02"/>
<path d="m1144.4 315.02c-0.17-2.368-3.97 1.095 0 0z" fill="#fff" fill-opacity=".02"/>
<path d="m1011.7 315.14c-2.17 0.348-2.89-0.05-2.15-1.202 2.18-0.342 2.9 0.057 2.15 1.202z" fill="#fff" fill-opacity=".02"/>
<path d="m469.93 314.26c-2.164 0.349-2.894-0.049-2.177-1.202 2.191-0.348 2.921 0.05 2.177 1.202z" fill="#fff" fill-opacity=".02"/>
<path d="m281.32 313.56c-1.314 0.967-4.833-0.078-3.306-1.145 1.341-0.968 4.86 0.085 3.306 1.145z" fill="#fff" fill-opacity=".02"/>
<path d="m753.63 312.82c-1.222 0.882-4.449-0.079-2.975-1.053 1.222-0.875 4.422 0.1 2.975 1.053z" fill="#fff" fill-opacity=".02"/>
<path d="m1317.2 311.39c-2.17 0.363-2.91-0.035-2.21-1.195 2.17-0.362 2.91 0.036 2.21 1.195z" fill="#fff" fill-opacity=".02"/>
<path d="m1290.6 311.33c-2.42 0.427-3.76-1.757-1.22-2.112 2.4-0.42 3.74 1.763 1.22 2.112z" fill="#fff" fill-opacity=".02"/>
<path d="m1045 311.48c1.93-2.148-4.43-0.029 0 0z" fill="#fff" fill-opacity=".02"/>
<path d="m443.35 310.63c-1.262 0.975-4.927 0.022-3.32-1.074 1.288-0.974 4.94-0.014 3.32 1.074z" fill="#fff" fill-opacity=".02"/>
<path d="m769.94 309.95c-1.939 0.839-4.037-0.996-2.271-1.743 1.939-0.825 4.023 1.003 2.271 1.743z" fill="#fff" fill-opacity=".02"/>
<path d="m664.8 309.8c-1.793 0.732-3.652-0.946-2.005-1.608 1.779-0.711 3.718 0.961 2.005 1.608z" fill="#fff" fill-opacity=".02"/>
<path d="m531 309.94c-2.151 0.362-2.895-0.029-2.217-1.195 2.191-0.356 2.921 0.042 2.217 1.195z" fill="#fff" fill-opacity=".02"/>
<path d="m499.18 309.99c-2.151 0.384-2.895-7e-3 -2.244-1.166 2.165-0.384 2.908 7e-3 2.244 1.166z" fill="#fff" fill-opacity=".02"/>
<path d="m577.78 307.67c-2.151 0.362-2.881-0.043-2.19-1.202 2.177-0.356 2.908 0.042 2.19 1.202z" fill="#fff" fill-opacity=".02"/>
<path d="m450.12 307.08c-1.275 1.002-4.754-0.071-3.28-1.131 1.328-1.01 4.82 0.057 3.28 1.131z" fill="#fff" fill-opacity=".02"/>
<path d="m988.77 305.68c-1.301 0.996-4.82-0.043-3.306-1.131 1.301-0.974 4.82 0.071 3.306 1.131z" fill="#fff" fill-opacity=".02"/>
<path d="m1129.9 305.09c-2.18 0.37-2.91-0.029-2.2-1.181 2.17-0.363 2.9 0.036 2.2 1.181z" fill="#fff" fill-opacity=".02"/>
<path d="m965.42 304.23c-1.966 0.804-4.037-1.038-2.152-1.735 1.979-0.804 4.064 1.038 2.152 1.735z" fill="#fff" fill-opacity=".02"/>
<path d="m452.67 303.57c-2.151 0.377-2.895-0.014-2.231-1.18 2.165-0.37 2.908 0.021 2.231 1.18z" fill="#fff" fill-opacity=".02"/>
<path d="m486.94 302.84c-2.165 0.355-2.895-0.043-2.178-1.195 2.178-0.349 2.908 0.05 2.178 1.195z" fill="#fff" fill-opacity=".02"/>
<path d="m1176.8 301.21c-1.98 0.221-3.97 0.434-5.95 0.648-0.38-0.513-1.14-1.537-1.53-2.049 2.49 0.491 5.01 0.903 7.48 1.401z" fill="#fff" fill-opacity=".02"/>
<path d="m1078.2 301.39c-1.33 0.903-4.92-0.107-3.39-1.167 1.37-0.903 4.94 0.093 3.39 1.167z" fill="#fff" fill-opacity=".02"/>
<path d="m645.25 301.54c-1.58 0.113-4.727 0.327-6.307 0.433 0.119-0.853 0.345-2.567 0.464-3.428 2.669 0.576 4.701 1.594 5.843 2.995z" fill="#fff" fill-opacity=".02"/>
<path d="m462.18 301.27c-1.859 0.32-2.483-0.022-1.899-1.024 1.886-0.313 2.51 0.028 1.899 1.024z" fill="#fff" fill-opacity=".02"/>
<path d="m961.23 300.78c-2.151 0.377-2.908-0.014-2.258-1.181 2.165-0.37 2.908 0.021 2.258 1.181z" fill="#fff" fill-opacity=".02"/>
<path d="m788.63 299.19c-2.151 0.384-2.908-7e-3 -2.244-1.166 2.178-0.377 2.921 0.014 2.244 1.166z" fill="#fff" fill-opacity=".02"/>
<path d="m1072.8 295c-1.31 0.931-4.93-0.05-3.32-1.124 1.32-0.939 4.95 0.043 3.32 1.124z" fill="#fff" fill-opacity=".02"/>
<path d="m909.46 294.97c-2.151 0.37-2.894-0.021-2.217-1.181 2.164-0.37 2.908 0.022 2.217 1.181z" fill="#fff" fill-opacity=".02"/>
<path d="m406.27 293.4c-2.483 0.491-3.811-1.743-1.049-1.956 2.59-0.512 3.824 1.721 1.049 1.956z" fill="#fff" fill-opacity=".02"/>
<path d="m1153.8 290.68c-2.16 0.384-2.91-7e-3 -2.25-1.167 2.18-0.377 2.92 0.015 2.25 1.167z" fill="#fff" fill-opacity=".02"/>
<path d="m967.82 290.04c-2.165 0.356-2.895-0.05-2.178-1.202 2.178-0.341 2.908 0.057 2.178 1.202z" fill="#fff" fill-opacity=".02"/>
<path d="m714.2 290.09c-2.164 0.363-2.895-0.035-2.204-1.201 2.178-0.349 2.908 0.049 2.204 1.201z" fill="#fff" fill-opacity=".02"/>
<path d="m884.18 289.34c-2.165 0.37-2.895-0.028-2.218-1.188 2.178-0.362 2.921 0.036 2.218 1.188z" fill="#fff" fill-opacity=".02"/>
<path d="m839.18 287.71c-1.766 0.725-3.798-0.904-2.005-1.551 1.766-0.718 3.811 0.911 2.005 1.551z" fill="#fff" fill-opacity=".02"/>
<path d="m691.11 287.89c-1.872 0.277-2.469-0.086-1.805-1.074 1.885-0.263 2.496 0.092 1.805 1.074z" fill="#fff" fill-opacity=".02"/>
<path d="m309.79 287.53c-1.992-0.049-3.997-0.092-6.015-0.149 0.053-0.54 0.146-1.629 0.199-2.169 2.005-0.064 3.997-0.135 5.975-0.213-0.04 0.633-0.119 1.898-0.159 2.531z" fill="#fff" fill-opacity=".02"/>
<path d="m987.69 286.34c-1.713 0.925-4.9-0.611-3.227-1.6 1.726-0.925 4.873 0.612 3.227 1.6z" fill="#fff" fill-opacity=".02"/>
<path d="m739.32 285.67c-1.527 0.818-4.687-0.462-3.293-1.437 1.54-0.746 4.754 0.463 3.293 1.437z" fill="#fff" fill-opacity=".02"/>
<path d="m662.5 285.84c-2.164 0.377-2.908-0.014-2.231-1.18 2.165-0.363 2.908 0.028 2.231 1.18z" fill="#fff" fill-opacity=".02"/>
<path d="m990.36 285.05c-1.859 0.32-2.496-0.021-1.925-1.024 1.859-0.313 2.496 0.029 1.925 1.024z" fill="#fff" fill-opacity=".02"/>
<path d="m619.97 282.93c-1.341 0.939-4.834-0.135-3.28-1.188 1.381-0.939 4.847 0.135 3.28 1.188z" fill="#fff" fill-opacity=".02"/>
<path d="m121.98 283.16c-2.576 0.249-3.811-1.117-4.767-2.155 1.434-0.029 4.302-0.086 5.736-0.114-0.239 0.569-0.717 1.7-0.969 2.269z" fill="#fff" fill-opacity=".02"/>
<path d="m45.017 280.81c-2.1512 0.377-2.8815-0.022-2.2175-1.181 2.1909-0.37 2.9212 0.029 2.2175 1.181z" fill="#fff" fill-opacity=".02"/>
<path d="m929.6 279.36c-2.151 0.377-2.894-0.014-2.23-1.174 2.177-0.369 2.921 0.022 2.23 1.174z" fill="#fff" fill-opacity=".02"/>
<path d="m1056.9 277.85c-2.15 0.405-2.91 0.028-2.27-1.145 2.16-0.399 2.92-0.015 2.27 1.145z" fill="#fff" fill-opacity=".02"/>
<path d="m513.79 277.89c-1.275 0.967-4.887-0.036-3.333-1.11 1.301-0.96 4.9 0.029 3.333 1.11z" fill="#fff" fill-opacity=".02"/>
<path d="m665.29 275.78c-2.165 0.377-2.895-0.014-2.231-1.173 2.178-0.377 2.921 0.014 2.231 1.173z" fill="#fff" fill-opacity=".02"/>
<path d="m298.44 275.86c-2.151 0.377-2.881-0.021-2.217-1.18 2.177-0.37 2.908 0.021 2.217 1.18z" fill="#fff" fill-opacity=".02"/>
<path d="m628.32 275.78c-2.961-0.377-4.607-1.572-5.497-3.08 1.421 0.079 4.276 0.242 5.697 0.328-0.054 0.682-0.147 2.062-0.2 2.752z" fill="#fff" fill-opacity=".02"/>
<path d="m131.82 275.23c-1.088 0.149-3.266 0.441-4.368 0.583 0.053-0.69 0.159-2.077 0.212-2.767 1.023 0 3.054 8e-3 4.063 8e-3 0.027 0.547 0.08 1.635 0.093 2.176z" fill="#fff" fill-opacity=".02"/>
<path d="m126.06 274.79c-1.899-0.142-2.191-0.605-0.89-1.387 1.925 0.149 2.218 0.612 0.89 1.387z" fill="#fff" fill-opacity=".02"/>
<path d="m1131.1 272.99c-1.29 0.946-4.92-0.021-3.35-1.109 1.3-0.953 4.93 0.028 3.35 1.109z" fill="#fff" fill-opacity=".02"/>
<path d="m708.93 272.37c-2.178 0.356-2.895-0.042-2.165-1.202 2.178-0.348 2.895 0.05 2.165 1.202z" fill="#fff" fill-opacity=".02"/>
<path d="m689.09 272.2c-2.138 0.398-2.895 0.021-2.271-1.152 2.165-0.391 2.921-7e-3 2.271 1.152z" fill="#fff" fill-opacity=".02"/>
<path d="m377.92 272.34c-1.859 0.291-2.483-0.057-1.845-1.053 1.885-0.285 2.496 0.064 1.845 1.053z" fill="#fff" fill-opacity=".02"/>
<path d="m866.14 271.12c-1.089-0.021-3.266-0.057-4.355-0.071-0.186-0.654-0.571-1.963-0.77-2.617 1.288 0.05 3.85 0.142 5.138 0.192 0 0.619-0.013 1.87-0.013 2.496z" fill="#fff" fill-opacity=".02"/>
<path d="m832.78 270.12c-2.045-0.718-3.983-1.55-5.232-2.702 1.395-0.029 4.196-0.079 5.591-0.1-0.093 0.697-0.266 2.098-0.359 2.802z" fill="#fff" fill-opacity=".02"/>
<path d="m573.48 269.45c-2.151 0.363-2.882-0.036-2.191-1.195 2.177-0.355 2.908 0.043 2.191 1.195z" fill="#fff" fill-opacity=".02"/>
<path d="m1147 267.96c-1.28 0.953-4.92-0.014-3.33-1.102 1.3-0.946 4.93 0.021 3.33 1.102z" fill="#fff" fill-opacity=".02"/>
<path d="m629.04 267.84c-1.182 0.889-4.422-0.057-3.014-1.038 1.222-0.868 4.462 0.064 3.014 1.038z" fill="#fff" fill-opacity=".02"/>
<path d="m1141.9 267.32c-0.15-2.368-3.99 1.081 0 0z" fill="#fff" fill-opacity=".02"/>
<path d="m805.83 266.46c-1.713 0.939-4.873-0.618-3.173-1.6 1.752-0.939 4.833 0.619 3.173 1.6z" fill="#fff" fill-opacity=".02"/>
<path d="m384.74 266.56c-1.288 1.017-4.754-0.086-3.213-1.145 1.314-1.003 4.793 0.092 3.213 1.145z" fill="#fff" fill-opacity=".02"/>
<path d="m399.49 265.92c-2.138 0.377-2.882-0.014-2.218-1.18 2.165-0.37 2.908 0.021 2.218 1.18z" fill="#fff" fill-opacity=".02"/>
<path d="m418.08 264.91c-1.7 0.733-3.837-0.846-2.164-1.543 1.726-0.726 3.864 0.853 2.164 1.543z" fill="#fff" fill-opacity=".02"/>
<path d="m379.69 264.44c2.124-2.091-4.422-0.142 0 0z" fill="#fff" fill-opacity=".02"/>
<path d="m287.84 262.87c-1.939 7e-3 -1.819-1.742 0.106-1.685 1.965 0 1.846 1.742-0.106 1.685z" fill="#fff" fill-opacity=".02"/>
<path d="m597.51 262.35c-2.151 0.391-2.894 0-2.244-1.166 2.165-0.384 2.908 0 2.244 1.166z" fill="#fff" fill-opacity=".02"/>
<path d="m957.07 260.03c-1.222 0.854-4.462-0.099-3.055-1.066 1.235-0.818 4.489 0.092 3.055 1.066z" fill="#fff" fill-opacity=".02"/>
<path d="m606.75 260.25c-1.845 0.334-2.496 0-1.925-1.003 1.859-0.334 2.51 7e-3 1.925 1.003z" fill="#fff" fill-opacity=".02"/>
<path d="m286.26 260.3c-1.859 0.334-2.496 0-1.938-1.003 1.872-0.327 2.523 7e-3 1.938 1.003z" fill="#fff" fill-opacity=".02"/>
<path d="m487.26 259.33c-2.125 0.405-2.881 0.021-2.271-1.153 2.151-0.398 2.908-0.014 2.271 1.153z" fill="#fff" fill-opacity=".02"/>
<path d="m383.67 259.6c-2.137 0.384-2.881 0-2.244-1.167 2.165-0.384 2.908 0 2.244 1.167z" fill="#fff" fill-opacity=".02"/>
<path d="m491.04 258.87c-0.133-2.368-3.997 1.081 0 0z" fill="#fff" fill-opacity=".02"/>
<path d="m612.32 257.35c-2.164 0.363-2.895-0.036-2.191-1.188 2.191-0.356 2.921 0.036 2.191 1.188z" fill="#fff" fill-opacity=".02"/>
<path d="m533.67 257.32c-2.151 0.37-2.895-0.021-2.218-1.188 2.178-0.362 2.922 0.029 2.218 1.188z" fill="#fff" fill-opacity=".02"/>
<path d="m415.49 256.42c-1.939 0.776-4.05-1.038-2.204-1.756 1.978-0.783 4.076 1.045 2.204 1.756z" fill="#fff" fill-opacity=".02"/>
<path d="m347.77 256.6c-2.138 0.377-2.882-0.015-2.218-1.181 2.178-0.37 2.921 0.021 2.218 1.181z" fill="#fff" fill-opacity=".02"/>
<path d="m1252 254.46c-2.15 0.398-2.91 0.014-2.26-1.152 2.14-0.391 2.9-7e-3 2.26 1.152z" fill="#fff" fill-opacity=".02"/>
<path d="m1160.4 254.28c-1.86 0.327-2.5-0.014-1.92-1.01 1.87-0.32 2.51 0.014 1.92 1.01z" fill="#fff" fill-opacity=".02"/>
<path d="m780.65 253.78c-2.164 0.377-2.895-0.014-2.218-1.18 2.178-0.37 2.909 0.028 2.218 1.18z" fill="#fff" fill-opacity=".02"/>
<path d="m604.07 253.8c-2.165 0.377-2.895-0.021-2.218-1.181 2.165-0.369 2.908 0.022 2.218 1.181z" fill="#fff" fill-opacity=".02"/>
<path d="m936.02 253.09c-2.257 0.427-3.572-1.614-1.115-1.906 2.244-0.398 3.519 1.6 1.115 1.906z" fill="#fff" fill-opacity=".02"/>
<path d="m904.15 253.06c-2.164 0.377-2.908-0.014-2.217-1.181 2.177-0.37 2.921 0.029 2.217 1.181z" fill="#fff" fill-opacity=".02"/>
<path d="m904.02 251.03c-1.899 0.277-2.496-0.078-1.792-1.06 1.898-0.263 2.496 0.093 1.792 1.06z" fill="#fff" fill-opacity=".02"/>
<path d="m310.59 250.2c-2.164 0.363-2.881-0.035-2.191-1.187 2.191-0.363 2.922 0.035 2.191 1.187z" fill="#fff" fill-opacity=".02"/>
<path d="m821.72 248.79c-1.354 0.938-4.82-0.164-3.253-1.202 1.381-0.939 4.834 0.163 3.253 1.202z" fill="#fff" fill-opacity=".02"/>
<path d="m699.66 246.7c-2.164 0.369-2.895-0.022-2.204-1.188 2.177-0.363 2.908 0.035 2.204 1.188z" fill="#fff" fill-opacity=".02"/>
<path d="m734.44 245.94c-2.151 0.384-2.895-7e-3 -2.244-1.166 2.164-0.384 2.908 7e-3 2.244 1.166z" fill="#fff" fill-opacity=".02"/>
<path d="m591.01 245.8c-1.912 0.839-4.143-0.953-2.204-1.672 1.925-0.839 4.169 0.954 2.204 1.672z" fill="#fff" fill-opacity=".02"/>
<path d="m1143.3 245.21c-2.17 0.37-2.9-0.029-2.21-1.181 2.18-0.363 2.91 0.029 2.21 1.181z" fill="#fff" fill-opacity=".02"/>
<path d="m928.02 245.17c-1.992 0.86-3.943-1.039-2.045-1.728 2.005-0.861 3.957 1.045 2.045 1.728z" fill="#fff" fill-opacity=".02"/>
<path d="m724.81 244.55c-2.165 0.363-2.895-0.035-2.191-1.194 2.177-0.356 2.908 0.042 2.191 1.194z" fill="#fff" fill-opacity=".02"/>
<path d="m1059.3 243.93c-0.08-2.376-4 1.052 0 0z" fill="#fff" fill-opacity=".02"/>
<path d="m950.86 242.8c-1.713 0.754-3.89-0.825-2.098-1.5 1.726-0.747 3.904 0.832 2.098 1.5z" fill="#fff" fill-opacity=".02"/>
<path d="m1017.1 242.25c-2.18 0.342-2.9-0.064-2.15-1.216 2.19-0.334 2.89 0.071 2.15 1.216z" fill="#fff" fill-opacity=".02"/>
<path d="m874.92 239.59c-2.152 0.377-2.895-0.021-2.218-1.188 2.164-0.37 2.908 0.029 2.218 1.188z" fill="#fff" fill-opacity=".02"/>
<path d="m1095.4 238.73c-2.17 0.384-2.91-8e-3 -2.26-1.167 2.18-0.377 2.92 0.014 2.26 1.167z" fill="#fff" fill-opacity=".02"/>
<path d="m1047.5 238.92c-2.16 0.356-2.89-0.042-2.19-1.201 2.18-0.342 2.91 0.056 2.19 1.201z" fill="#fff" fill-opacity=".02"/>
<path d="m612.06 237.35c-2.125 0.398-2.881 0.014-2.257-1.16 2.164-0.391 2.921-7e-3 2.257 1.16z" fill="#fff" fill-opacity=".02"/>
<path d="m524.36 237.45c-2.151 0.384-2.895-7e-3 -2.231-1.181 2.151-0.377 2.895 0.022 2.231 1.181z" fill="#fff" fill-opacity=".02"/>
<path d="m500.51 236.74c-2.164 0.369-2.894-0.022-2.217-1.188 2.178-0.363 2.908 0.028 2.217 1.188z" fill="#fff" fill-opacity=".02"/>
<path d="m970.54 235.87c-1.74-0.484-1.727-0.96 0.039-1.422 1.74 0.49 1.727 0.967-0.039 1.422z" fill="#fff" fill-opacity=".02"/>
<path d="m718.16 236.05c-1.74-0.477-1.74-0.96-0.013-1.451 1.739 0.477 1.752 0.96 0.013 1.451z" fill="#fff" fill-opacity=".02"/>
<path d="m943.94 235.26c-2.151 0.37-2.894-0.021-2.204-1.188 2.178-0.363 2.908 0.036 2.204 1.188z" fill="#fff" fill-opacity=".02"/>
<path d="m468.56 235.16c-2.165 0.363-2.895-0.036-2.191-1.188 2.191-0.355 2.908 0.043 2.191 1.188z" fill="#fff" fill-opacity=".02"/>
<path d="m489.66 233.81c-1.262 1.039-4.754-0.05-3.227-1.116 1.288-1.025 4.78 0.049 3.227 1.116z" fill="#fff" fill-opacity=".02"/>
<path d="m407.56 232.45c-2.164 0.363-2.894-0.035-2.204-1.194 2.178-0.356 2.908 0.035 2.204 1.194z" fill="#fff" fill-opacity=".02"/>
<path d="m906.64 231.75c-2.151 0.363-2.881-0.035-2.191-1.202 2.165-0.348 2.895 0.05 2.191 1.202z" fill="#fff" fill-opacity=".02"/>
<path d="m375.6 231.81c-2.138 0.391-2.895 0-2.271-1.167 2.151-0.377 2.908 8e-3 2.271 1.167z" fill="#fff" fill-opacity=".02"/>
<path d="m790.13 230.31c2.098-2.112-4.422-0.135 0 0z" fill="#fff" fill-opacity=".02"/>
<path d="m897.45 229.57c-1.261 0.96-4.913 0-3.346-1.088 1.288-0.953 4.926-7e-3 3.346 1.088z" fill="#fff" fill-opacity=".02"/>
<path d="m572.15 229.55c-1.992 0.882-3.891-1.038-2.085-1.749 1.992-0.868 3.891 1.059 2.085 1.749z" fill="#fff" fill-opacity=".02"/>
<path d="m306.25 228.91c-1.196 0.896-4.409-0.078-2.948-1.045 1.221-0.897 4.421 0.092 2.948 1.045z" fill="#fff" fill-opacity=".02"/>
<path d="m897.24 227.54c-0.239-2.368-3.917 1.117 0 0z" fill="#fff" fill-opacity=".02"/>
<path d="m954.37 226.04c-2.138 0.398-2.895 7e-3 -2.258-1.166 2.138-0.392 2.882 0 2.258 1.166z" fill="#fff" fill-opacity=".02"/>
<path d="m549.54 226.05c-2.151 0.384-2.895-0.014-2.244-1.18 2.164-0.37 2.908 0.021 2.244 1.18z" fill="#fff" fill-opacity=".02"/>
<path d="m990.76 225.08c1.886-2.155-4.435 0 0 0z" fill="#fff" fill-opacity=".02"/>
<path d="m784.65 225.31c-2.151 0.37-2.894-0.021-2.217-1.188 2.178-0.363 2.921 0.029 2.217 1.188z" fill="#fff" fill-opacity=".02"/>
<path d="m371.46 224.46c-2.138 0.376-2.881-8e-3 -2.244-1.174 2.178-0.377 2.922 0.014 2.244 1.174z" fill="#fff" fill-opacity=".02"/>
<path d="m929.25 223.17c-2.164 0.362-2.881-0.036-2.164-1.195 2.177-0.349 2.895 0.05 2.164 1.195z" fill="#fff" fill-opacity=".02"/>
<path d="m577.78 223.09c1.978-2.134-4.422-0.05 0 0z" fill="#fff" fill-opacity=".02"/>
<path d="m638.58 221.53c-1.859 0.32-2.483-0.022-1.899-1.017 1.873-0.32 2.51 0.021 1.899 1.017z" fill="#fff" fill-opacity=".02"/>
<path d="m947.84 221.02c-1.274 0.988-4.873-0.029-3.266-1.11 1.288-0.974 4.9 0.036 3.266 1.11z" fill="#fff" fill-opacity=".02"/>
<path d="m863.07 220.97c-2.152 0.377-2.895-0.015-2.244-1.174 2.177-0.37 2.921 0.022 2.244 1.174z" fill="#fff" fill-opacity=".02"/>
<path d="m242.72 221.06c-1.341 0.938-4.847-0.128-3.28-1.181 1.381-0.932 4.887 0.135 3.28 1.181z" fill="#fff" fill-opacity=".02"/>
<path d="m1003.8 220.28c-2.15 0.384-2.9-7e-3 -2.23-1.173 2.16-0.377 2.9 0.014 2.23 1.173z" fill="#fff" fill-opacity=".02"/>
<path d="m974.34 220.33c-1.275 0.967-4.913 7e-3 -3.36-1.095 1.275-0.953 4.887 0.014 3.36 1.095z" fill="#fff" fill-opacity=".02"/>
<path d="m726.3 220.34c-2.151 0.37-2.882-0.028-2.178-1.187 2.178-0.363 2.895 0.035 2.178 1.187z" fill="#fff" fill-opacity=".02"/>
<path d="m624.97 219.42c-1.181 0.932-4.302-0.1-3.001-1.06 1.209-0.91 4.342 0.1 3.001 1.06z" fill="#fff" fill-opacity=".02"/>
<path d="m1229.4 218.23c-1.15 0.896-4.46 0.021-2.99-0.975 1.13-0.924 4.45-0.014 2.99 0.975z" fill="#fff" fill-opacity=".02"/>
<path d="m557.44 218.17c-2.138 0.398-2.882 0.014-2.231-1.159 2.164-0.384 2.908 0 2.231 1.159z" fill="#fff" fill-opacity=".02"/>
<path d="m844.15 217.4c-1.222 1.017-4.9 0.071-3.294-1.031 1.222-1.01 4.914-0.064 3.294 1.031z" fill="#fff" fill-opacity=".02"/>
<path d="m569.53 217.42c-1.274 0.996-4.806-0.057-3.293-1.124 1.315-0.981 4.86 0.057 3.293 1.124z" fill="#fff" fill-opacity=".02"/>
<path d="m966.43 216.77c-1.288 1.031-4.794-0.057-3.174-1.117 1.302-1.031 4.794 0.064 3.174 1.117z" fill="#fff" fill-opacity=".02"/>
<path d="m467.32 216.89c-2.151 0.384-2.895-7e-3 -2.244-1.173 2.164-0.377 2.908 0.014 2.244 1.173z" fill="#fff" fill-opacity=".02"/>
<path d="m511.2 214.73c-1.859 0.306-2.483-0.043-1.859-1.039 1.885-0.291 2.51 0.05 1.859 1.039z" fill="#fff" fill-opacity=".02"/>
<path d="m380.91 214.64c-2.138 0.399-2.881 7e-3 -2.231-1.166 2.165-0.377 2.908 7e-3 2.231 1.166z" fill="#fff" fill-opacity=".02"/>
<path d="m1026.7 213.96c-2.18 0.356-2.91-0.043-2.18-1.195 2.18-0.348 2.91 0.05 2.18 1.195z" fill="#fff" fill-opacity=".02"/>
<path d="m500.45 214.01c-2.151 0.384-2.895-7e-3 -2.244-1.174 2.151-0.376 2.908 0.022 2.244 1.174z" fill="#fff" fill-opacity=".02"/>
<path d="m479.2 214.08c-2.019 0.484-3.479-1.358-1.195-1.664 2.058-0.469 3.492 1.351 1.195 1.664z" fill="#fff" fill-opacity=".02"/>
<path d="m314.5 213.99c-2.151 0.356-2.881-0.05-2.151-1.209 2.178-0.341 2.895 0.064 2.151 1.209z" fill="#fff" fill-opacity=".02"/>
<path d="m863.01 212.56c-2.165 0.384-2.908 0-2.245-1.166 2.165-0.377 2.908 7e-3 2.245 1.166z" fill="#fff" fill-opacity=".02"/>
<path d="m541.65 212.52c-2.151 0.363-2.882-0.028-2.204-1.187 2.19-0.363 2.921 0.035 2.204 1.187z" fill="#fff" fill-opacity=".02"/>
<path d="m442.21 211.14c-2.165 0.391-2.908 7e-3 -2.258-1.152 2.165-0.391 2.922-7e-3 2.258 1.152z" fill="#fff" fill-opacity=".02"/>
<path d="m797.93 210.47c-2.164 0.391-2.908 7e-3 -2.244-1.159 2.151-0.384 2.908 7e-3 2.244 1.159z" fill="#fff" fill-opacity=".02"/>
<path d="m275.89 209.75c-2.151 0.348-2.868-0.057-2.138-1.209 2.178-0.342 2.895 0.056 2.138 1.209z" fill="#fff" fill-opacity=".02"/>
<path d="m1184.4 208.92c-2.15 0.392-2.89 0-2.23-1.166 2.16-0.384 2.91 7e-3 2.23 1.166z" fill="#fff" fill-opacity=".02"/>
<path d="m758.04 208.9c-1.74-0.462-1.74-0.946-0.027-1.436 1.753 0.469 1.766 0.953 0.027 1.436z" fill="#fff" fill-opacity=".02"/>
<path d="m1031.7 207.59c-2.17 0.384-2.91-7e-3 -2.22-1.174 2.17-0.37 2.91 0.022 2.22 1.174z" fill="#fff" fill-opacity=".02"/>
<path d="m852.43 205.94c-1.845 0.327-2.483-0.014-1.912-1.017 1.859-0.32 2.51 0.014 1.912 1.017z" fill="#fff" fill-opacity=".02"/>
<path d="m800.65 206.25c-2.138 0.398-2.895 7e-3 -2.271-1.16 2.151-0.384 2.908 0 2.271 1.16z" fill="#fff" fill-opacity=".02"/>
<path d="m938.43 205.43c-1.235 1.01-4.874 0.035-3.32-1.067 1.235-0.996 4.847-0.021 3.32 1.067z" fill="#fff" fill-opacity=".02"/>
<path d="m491.24 205.37c-1.315 0.982-4.767-0.113-3.227-1.159 1.355-0.988 4.834 0.107 3.227 1.159z" fill="#fff" fill-opacity=".02"/>
<path d="m622.54 204.04c-0.093-2.375-3.97 1.067 0 0z" fill="#fff" fill-opacity=".02"/>
<path d="m362.4 203.31c-0.079-2.375-3.983 1.053 0 0z" fill="#fff" fill-opacity=".02"/>
<path d="m327.96 203.39c-2.178 0.362-2.895-0.036-2.165-1.195 2.191-0.349 2.908 0.05 2.165 1.195z" fill="#fff" fill-opacity=".02"/>
<path d="m1157.8 202.58c-2.16 0.377-2.91-0.014-2.22-1.18 2.17-0.37 2.91 0.028 2.22 1.18z" fill="#fff" fill-opacity=".02"/>
<path d="m922.24 201.93c-1.249 0.939-4.276-0.171-2.842-1.102 1.261-0.932 4.276 0.185 2.842 1.102z" fill="#fff" fill-opacity=".02"/>
<path d="m467.29 201.89c-2.164 0.377-2.908-0.021-2.23-1.188 2.177-0.362 2.908 0.036 2.23 1.188z" fill="#fff" fill-opacity=".02"/>
<path d="m784.65 201.16c-2.165 0.369-2.895-0.029-2.191-1.188 2.164-0.356 2.908 0.043 2.191 1.188z" fill="#fff" fill-opacity=".02"/>
<path d="m719.57 201.15c-2.164 0.377-2.895-0.015-2.217-1.181 2.177-0.37 2.908 0.028 2.217 1.181z" fill="#fff" fill-opacity=".02"/>
<path d="m598.97 200.36c2.019-2.126-4.435-0.078 0 0z" fill="#fff" fill-opacity=".02"/>
<path d="m1164.4 199.66c-2.15 0.384-2.89-7e-3 -2.23-1.167 2.17-0.377 2.91 0.015 2.23 1.167z" fill="#fff" fill-opacity=".02"/>
<path d="m558.6 199.16c-0.185-2.376-3.943 1.102 0 0z" fill="#fff" fill-opacity=".02"/>
<path d="m521.82 196.9c-2.164 0.363-2.894-0.028-2.191-1.187 2.178-0.363 2.908 0.035 2.191 1.187z" fill="#fff" fill-opacity=".02"/>
<path d="m464.67 197.06c-2.151 0.391-2.895 7e-3 -2.257-1.159 2.164-0.391 2.908 0 2.257 1.159z" fill="#fff" fill-opacity=".02"/>
<path d="m268.2 196.93c-1.846 0.327-2.483-7e-3 -1.912-1.017 1.872-0.32 2.51 0.014 1.912 1.017z" fill="#fff" fill-opacity=".02"/>
<path d="m893.72 196.06c-2.137 0.405-2.908 0.021-2.297-1.145 2.165-0.392 2.922-0.015 2.297 1.145z" fill="#fff" fill-opacity=".02"/>
<path d="m678.27 195.51c-2.165 0.355-2.895-0.043-2.178-1.195 2.178-0.356 2.908 0.042 2.178 1.195z" fill="#fff" fill-opacity=".02"/>
<path d="m601.63 195.46c-2.151 0.377-2.894-0.015-2.217-1.174 2.164-0.37 2.908 0.021 2.217 1.174z" fill="#fff" fill-opacity=".02"/>
<path d="m501.85 195.52c2.045-2.126-4.422-0.085 0 0z" fill="#fff" fill-opacity=".02"/>
<path d="m807.3 194.82c-2.164 0.37-2.908-0.021-2.217-1.18 2.164-0.377 2.908 0.021 2.217 1.18z" fill="#fff" fill-opacity=".02"/>
<path d="m1024.8 194.07c-2.16 0.363-2.89-0.043-2.17-1.202 2.16-0.348 2.89 0.057 2.17 1.202z" fill="#fff" fill-opacity=".02"/>
<path d="m491.15 194.04c-0.664-0.356-0.664-0.356 0 0z" fill="#fff" fill-opacity=".02"/>
<path d="m486.05 194.03c-2.138 0.377-3.758-1.593-1.302-1.92 2.151-0.363 3.771 1.607 1.302 1.92z" fill="#fff" fill-opacity=".02"/>
<path d="m477.99 194.06c-2.164 0.37-2.908-0.021-2.244-1.181 2.178-0.369 2.922 0.022 2.244 1.181z" fill="#fff" fill-opacity=".02"/>
<path d="m257.66 192.62c-2.152 0.363-2.882-0.042-2.178-1.195 2.191-0.355 2.908 0.043 2.178 1.195z" fill="#fff" fill-opacity=".02"/>
<path d="m1092.7 191.88c-2.2 0.42-3.72-1.579-1.21-1.878 2.21-0.405 3.71 1.586 1.21 1.878z" fill="#fff" fill-opacity=".02"/>
<path d="m670.44 189.84c-1.859 0.385-2.935-1.287-0.917-1.529 1.886-0.369 2.948 1.295 0.917 1.529z" fill="#fff" fill-opacity=".02"/>
<path d="m835.19 189.12c-2.137 0.405-2.894 0.021-2.257-1.145 2.151-0.399 2.908-0.014 2.257 1.145z" fill="#fff" fill-opacity=".02"/>
<path d="m726.33 188.23c-2.138 0.398-2.895 7e-3 -2.284-1.159 2.151-0.384 2.922 0 2.284 1.159z" fill="#fff" fill-opacity=".02"/>
<path d="m553.49 188.36c-2.138 0.391-2.894 0-2.231-1.166 2.165-0.377 2.908 0.014 2.231 1.166z" fill="#fff" fill-opacity=".02"/>
<path d="m771.34 187.58c-2.151 0.37-2.895-0.022-2.204-1.181 2.177-0.37 2.908 0.029 2.204 1.181z" fill="#fff" fill-opacity=".02"/>
<path d="m620.31 186.94c-2.152 0.384-2.895 0-2.231-1.166 2.164-0.384 2.908 7e-3 2.231 1.166z" fill="#fff" fill-opacity=".02"/>
<path d="m614.68 186.96c-2.164 0.377-2.908-0.021-2.217-1.18 2.164-0.363 2.908 0.028 2.217 1.18z" fill="#fff" fill-opacity=".02"/>
<path d="m1204.2 186.35c-2.05 0.505-3.42-1.338-1.15-1.658 2.06-0.49 3.42 1.345 1.15 1.658z" fill="#fff" fill-opacity=".02"/>
<path d="m1101.9 186.21c-1.17 0.91-4.41-0.028-2.99-1.017 1.17-0.917 4.4 0.043 2.99 1.017z" fill="#fff" fill-opacity=".02"/>
<path d="m335.8 186.14c-2.151 0.37-2.895-0.021-2.218-1.18 2.191-0.363 2.922 0.028 2.218 1.18z" fill="#fff" fill-opacity=".02"/>
<path d="m1176.2 185.47c-1.31 0.945-4.94-0.05-3.29-1.131 1.31-0.925 4.94 0.064 3.29 1.131z" fill="#fff" fill-opacity=".02"/>
<path d="m652.83 185.46c-0.239-2.376-3.917 1.131 0 0z" fill="#fff" fill-opacity=".02"/>
<path d="m506.06 185.42c1.912-2.155-4.435-0.015 0 0z" fill="#fff" fill-opacity=".02"/>
<path d="m404.87 185.46c-2.138 0.391-2.882 0-2.231-1.167 2.178-0.384 2.921 7e-3 2.231 1.167z" fill="#fff" fill-opacity=".02"/>
<path d="m801.91 184.77c-1.659 0.611-4.275-0.214-4.528-1.231 0.917-1.301 5.843 0.022 4.528 1.231z" fill="#fff" fill-opacity=".02"/>
<path d="m383.55 184.95c-1.925 0.854-4.09-0.974-2.178-1.692 1.952-0.832 4.104 0.988 2.178 1.692z" fill="#fff" fill-opacity=".02"/>
<path d="m990.22 184.08c-2.164 0.348-2.895-0.05-2.164-1.209 2.191-0.334 2.908 0.064 2.164 1.209z" fill="#fff" fill-opacity=".02"/>
<path d="m274.78 183.37c-1.288 0.995-4.78-0.072-3.346-1.138 1.328-0.982 4.807 0.064 3.346 1.138z" fill="#fff" fill-opacity=".02"/>
<path d="m1235 182.72c2.1-2.098-4.43-0.128 0 0z" fill="#fff" fill-opacity=".02"/>
<path d="m1232.1 182.62c-2.16 0.363-2.89-0.035-2.19-1.194 2.18-0.356 2.91 0.042 2.19 1.194z" fill="#fff" fill-opacity=".02"/>
<path d="m239.28 183.12c-2.085-0.797-2.869-2.084-3.506-3.364 1.089 0.028 3.253 0.078 4.342 0.106-0.265 1.088-0.544 2.177-0.836 3.258z" fill="#fff" fill-opacity=".02"/>
<path d="m932.01 181.35c-2.164 0.369-2.894-0.022-2.191-1.188 2.165-0.356 2.895 0.035 2.191 1.188z" fill="#fff" fill-opacity=".02"/>
<path d="m905.46 181.23c-0.119-2.375-3.997 1.06 0 0z" fill="#fff" fill-opacity=".02"/>
<path d="m764.7 180.61c-2.178 0.37-2.908-0.028-2.205-1.188 2.165-0.362 2.895 0.036 2.205 1.188z" fill="#fff" fill-opacity=".02"/>
<path d="m495.19 180.57c-1.859 0.313-2.483-0.036-1.872-1.032 1.872-0.305 2.51 0.036 1.872 1.032z" fill="#fff" fill-opacity=".02"/>
<path d="m152.64 180.49c-2.165 0.356-2.895-0.05-2.218-1.202 2.191-0.348 2.922 0.057 2.218 1.202z" fill="#fff" fill-opacity=".02"/>
<path d="m935.92 179.9c-0.226-2.361-3.984 1.109 0 0z" fill="#fff" fill-opacity=".02"/>
<path d="m856.31 179.79c-2.151 0.384-2.894-7e-3 -2.217-1.174 2.178-0.37 2.921 0.022 2.217 1.174z" fill="#fff" fill-opacity=".02"/>
<path d="m659.75 179.78c-1.261 0.96-4.913 0-3.333-1.088 1.288-0.961 4.94 0 3.333 1.088z" fill="#fff" fill-opacity=".02"/>
<path d="m392.92 179.26c-2.138 0.384-2.895-7e-3 -2.257-1.173 2.151-0.377 2.908 0.014 2.257 1.173z" fill="#fff" fill-opacity=".02"/>
<path d="m446.6 178.79c-1.023-0.107-3.081-0.306-4.104-0.406-0.172-0.512-0.517-1.543-0.69-2.055 1.115 0.014 3.333 0.028 4.448 0.042 0.093 0.605 0.253 1.814 0.346 2.419z" fill="#fff" fill-opacity=".02"/>
<path d="m383.58 178.31c-1.235 0.867-4.369-0.157-2.948-1.103 1.288-0.853 4.435 0.157 2.948 1.103z" fill="#fff" fill-opacity=".02"/>
<path d="m317.21 178.4c-2.151 0.377-2.881-0.021-2.204-1.18 2.178-0.363 2.921 0.028 2.204 1.18z" fill="#fff" fill-opacity=".02"/>
<path d="m286.45 178.28c-1.274 1.003-4.846-7e-3 -3.319-1.095 1.288-0.982 4.86 0.021 3.319 1.095z" fill="#fff" fill-opacity=".02"/>
<path d="m961.25 177.67c-2.151 0.377-2.895-0.014-2.204-1.181 2.177-0.37 2.908 0.029 2.204 1.181z" fill="#fff" fill-opacity=".02"/>
<path d="m902.71 177.68c-2.562 0.427-3.465-1.835-0.85-2.055 2.59-0.413 3.519 1.842 0.85 2.055z" fill="#fff" fill-opacity=".02"/>
<path d="m388.83 177.65c-2.164 0.327-2.881-0.078-2.151-1.223 2.217-0.32 2.934 0.092 2.151 1.223z" fill="#fff" fill-opacity=".02"/>
<path d="m736.94 177.46c-2.071-0.797-4.129-1.608-6.201-2.411 3.067-0.363 6.121-0.747 9.189-1.067-0.996 1.159-1.992 2.319-2.988 3.478z" fill="#fff" fill-opacity=".02"/>
<path d="m468.67 176.94c-2.152 0.369-2.895-0.022-2.218-1.188 2.178-0.363 2.908 0.035 2.218 1.188z" fill="#fff" fill-opacity=".02"/>
<path d="m103.42 176.22c-2.178 0.284-3.32-1.736-1.063-2.063 2.205-0.277 3.36 1.75 1.063 2.063z" fill="#fff" fill-opacity=".02"/>
<path d="m877.38 174.85c-0.226-2.369-3.931 1.116 0 0z" fill="#fff" fill-opacity=".02"/>
<path d="m248.1 174.85c-1.381 0.896-4.9-0.171-3.293-1.216 1.42-0.896 4.913 0.178 3.293 1.216z" fill="#fff" fill-opacity=".02"/>
<path d="m1006.5 173.46c-2.19 0.342-2.91-0.057-2.16-1.209 2.18-0.341 2.91 0.064 2.16 1.209z" fill="#fff" fill-opacity=".02"/>
<path d="m442.21 173.38c-2.151 0.384-2.895-7e-3 -2.231-1.174 2.178-0.37 2.921 0.021 2.231 1.174z" fill="#fff" fill-opacity=".02"/>
<path d="m266.64 173.45c-0.226-2.369-3.944 1.116 0 0z" fill="#fff" fill-opacity=".02"/>
<path d="m1002.2 172.68c-1.28 1.145-4.555-0.1-3.081-1.145 1.271-1.138 4.571 0.114 3.081 1.145z" fill="#fff" fill-opacity=".02"/>
<path d="m901.47 172.83c-0.452-2.369-3.811 1.223 0 0z" fill="#fff" fill-opacity=".02"/>
<path d="m269.31 172.57c-1.766 0.384-3.108-1.23-1.116-1.529 1.806-0.377 3.121 1.238 1.116 1.529z" fill="#fff" fill-opacity=".02"/>
<path d="m1250.5 172.05c-0.32-2.361-3.93 1.152 0 0z" fill="#fff" fill-opacity=".02"/>
<path d="m706.09 171.26c-2.151 0.384-2.895-7e-3 -2.231-1.181 2.165-0.37 2.908 0.021 2.231 1.181z" fill="#fff" fill-opacity=".02"/>
<path d="m711 169.84c-1.487 0.683-2.324 0.505-2.523-0.54 1.5-0.676 2.337-0.491 2.523 0.54z" fill="#fff" fill-opacity=".02"/>
<path d="m621.29 169.1c-2.152 0.392-2.895 0-2.231-1.173 2.178-0.377 2.921 0.014 2.231 1.173z" fill="#fff" fill-opacity=".02"/>
<path d="m590.63 169.11c-1.992 0.832-3.931-1.067-2.164-1.785 1.991-0.811 3.943 1.081 2.164 1.785z" fill="#fff" fill-opacity=".02"/>
<path d="m1066.1 168.41c-2.16 0.377-2.9-0.014-2.23-1.18 2.18-0.37 2.91 0.021 2.23 1.18z" fill="#fff" fill-opacity=".02"/>
<path d="m905.08 168.44c-2.164 0.356-2.881-0.05-2.151-1.202 2.178-0.349 2.895 0.057 2.151 1.202z" fill="#fff" fill-opacity=".02"/>
<path d="m515.12 168.53c-2.164 0.363-2.895-0.035-2.204-1.195 2.178-0.348 2.908 0.05 2.204 1.195z" fill="#fff" fill-opacity=".02"/>
<path d="m511.03 168.24c-1.115 0.896-4.422 0.035-3.134-0.967 1.156-0.875 4.489-0.043 3.134 0.967z" fill="#fff" fill-opacity=".02"/>
<path d="m273.45 167c-2.151 0.37-2.894-0.028-2.217-1.187 2.191-0.363 2.921 0.035 2.217 1.187z" fill="#fff" fill-opacity=".02"/>
<path d="m835.1 166.12c-2.084 0.413-3.293-1.436-0.982-1.685 2.071-0.399 3.293 1.45 0.982 1.685z" fill="#fff" fill-opacity=".02"/>
<path d="m500.51 166.19c-1.951 0.825-4.049-1.017-2.177-1.728 1.965-0.818 4.05 1.017 2.177 1.728z" fill="#fff" fill-opacity=".02"/>
<path d="m294.76 165.59c-2.138 0.406-2.894 0.022-2.27-1.152 2.164-0.391 2.908-7e-3 2.27 1.152z" fill="#fff" fill-opacity=".02"/>
<path d="m691.8 164.76c-2.138 0.391-2.894 0-2.257-1.166 2.164-0.377 2.921 0.014 2.257 1.166z" fill="#fff" fill-opacity=".02"/>
<path d="m1068.8 164.28c-1.98 0.825-4.12-1.01-2.09-1.699 1.97-0.804 4.09 1.024 2.09 1.699z" fill="#fff" fill-opacity=".02"/>
<path d="m820.57 163.46c-2.165 0.349-2.882-0.057-2.178-1.209 2.191-0.348 2.908 0.057 2.178 1.209z" fill="#fff" fill-opacity=".02"/>
<path d="m634.66 163.51c-2.177 0.356-2.894-0.042-2.151-1.201 2.165-0.349 2.895 0.049 2.151 1.201z" fill="#fff" fill-opacity=".02"/>
<path d="m326.54 163.51c-2.151 0.384-2.895-8e-3 -2.258-1.174 2.165-0.377 2.922 0.014 2.258 1.174z" fill="#fff" fill-opacity=".02"/>
<path d="m954.51 162.73c-2.165 0.37-2.882-0.028-2.178-1.194 2.165-0.356 2.895 0.042 2.178 1.194z" fill="#fff" fill-opacity=".02"/>
<path d="m926.62 162.7c-2.164 0.363-2.881-0.035-2.177-1.195 2.191-0.348 2.908 0.05 2.177 1.195z" fill="#fff" fill-opacity=".02"/>
<path d="m365.12 161.99c-1.713-0.498-1.687-0.975 0.079-1.43 1.74 0.505 1.713 0.982-0.079 1.43z" fill="#fff" fill-opacity=".02"/>
<path d="m800.45 161.4c-2.244 0.335-3.36-1.714-1.063-2.041 2.218-0.313 3.28 1.707 1.063 2.041z" fill="#fff" fill-opacity=".02"/>
<path d="m374.39 160.65c-2.164 0.377-2.908-0.014-2.231-1.173 2.178-0.377 2.922 0.021 2.231 1.173z" fill="#fff" fill-opacity=".02"/>
<path d="m1135.2 160.01c-2.16 0.384-2.9 0-2.24-1.167 2.16-0.377 2.91 7e-3 2.24 1.167z" fill="#fff" fill-opacity=".02"/>
<path d="m791.27 159.87c-2.165 0.37-2.895-0.029-2.204-1.188 2.191-0.363 2.921 0.036 2.204 1.188z" fill="#fff" fill-opacity=".02"/>
<path d="m438.04 159.78c-2.178 0.335-2.895-0.071-2.152-1.223 2.191-0.327 2.909 0.078 2.152 1.223z" fill="#fff" fill-opacity=".02"/>
<path d="m566.86 159.17c-2.151 0.377-2.881-0.021-2.204-1.18 2.178-0.37 2.922 0.021 2.204 1.18z" fill="#fff" fill-opacity=".02"/>
<path d="m239.97 159.42c-1.859 0.32-2.509-0.015-1.939-1.017 1.873-0.313 2.523 0.028 1.939 1.017z" fill="#fff" fill-opacity=".02"/>
<path d="m591.04 158.68c-2.164 0.384-2.908 0-2.27-1.167 2.177-0.377 2.921 0.015 2.27 1.167z" fill="#fff" fill-opacity=".02"/>
<path d="m1205.4 157.36c-1.88 0.249-2.37-1.465-0.74-1.792 1.9-0.235 2.38 1.479 0.74 1.792z" fill="#fff" fill-opacity=".02"/>
<path d="m461.87 157.76c-2.151 0.362-2.881-0.036-2.204-1.195 2.191-0.349 2.922 0.043 2.204 1.195z" fill="#fff" fill-opacity=".02"/>
<path d="m99.844 157.89c-1.1951 0.847-4.4351-0.092-3.0408-1.059 1.2349-0.847 4.4749 0.092 3.0408 1.059z" fill="#fff" fill-opacity=".02"/>
<path d="m980.94 156.86c-1.182 0.932-4.382-0.071-2.935-1.031 1.195-0.904 4.409 0.064 2.935 1.031z" fill="#fff" fill-opacity=".02"/>
<path d="m932.13 156.96c-1.925 0.853-4.063-0.975-2.204-1.7 1.952-0.846 4.09 0.988 2.204 1.7z" fill="#fff" fill-opacity=".02"/>
<path d="m1064.7 155.69c-1.35 0.526-2.85 0.803-4.49 0.825-1.02-0.712-1.79-1.494-2.31-2.362 2.41 0.342 6.03-0.17 6.8 1.537z" fill="#fff" fill-opacity=".02"/>
<path d="m719.54 156.43c-2.164 0.37-2.895-0.021-2.204-1.188 2.177-0.362 2.908 0.036 2.204 1.188z" fill="#fff" fill-opacity=".02"/>
<path d="m669 156.44c-2.151 0.37-2.895-0.028-2.191-1.195 2.164-0.355 2.894 0.043 2.191 1.195z" fill="#fff" fill-opacity=".02"/>
<path d="m854.98 155.71c-2.178 0.349-2.908-0.056-2.178-1.216 2.178-0.334 2.908 0.071 2.178 1.216z" fill="#fff" fill-opacity=".02"/>
<path d="m778.01 155.55c2.005-2.127-4.435-0.072 0 0z" fill="#fff" fill-opacity=".02"/>
<path d="m444.65 154.81c-2.164 0.349-2.882-0.05-2.151-1.209 2.191-0.334 2.908 0.064 2.151 1.209z" fill="#fff" fill-opacity=".02"/>
<path d="m297.16 154.19c-2.138 0.384-2.881-7e-3 -2.217-1.181 2.164-0.376 2.894 0.022 2.217 1.181z" fill="#fff" fill-opacity=".02"/>
<path d="m1265.4 152.68c-2.16 0.377-2.89-0.021-2.19-1.18 2.18-0.363 2.91 0.028 2.19 1.18z" fill="#fff" fill-opacity=".02"/>
<path d="m418.22 152.13c-2.151 0.355-2.881-0.043-2.178-1.202 2.191-0.349 2.908 0.05 2.178 1.202z" fill="#fff" fill-opacity=".02"/>
<path d="m766 149.13c-1.979 0.086-2.085-1.671-0.08-1.643 1.979-0.064 2.098 1.686 0.08 1.643z" fill="#fff" fill-opacity=".02"/>
<path d="m354.21 149.11c-1.594 0.796-4.634-0.584-2.961-1.487 1.633-0.803 4.621 0.583 2.961 1.487z" fill="#fff" fill-opacity=".02"/>
<path d="m1200.1 148.28c-1.25 0.954-4.23-0.177-2.8-1.102 1.25-0.953 4.25 0.178 2.8 1.102z" fill="#fff" fill-opacity=".02"/>
<path d="m934.63 148.51c-2.165 0.37-2.895-0.021-2.218-1.188 2.178-0.362 2.908 0.036 2.218 1.188z" fill="#fff" fill-opacity=".02"/>
<path d="m210.98 148.54c-2.151 0.377-2.894-0.021-2.217-1.181 2.178-0.362 2.921 0.029 2.217 1.181z" fill="#fff" fill-opacity=".02"/>
<path d="m537.64 147.08c-2.152 0.37-2.882-0.028-2.205-1.187 2.178-0.363 2.908 0.035 2.205 1.187z" fill="#fff" fill-opacity=".02"/>
<path d="m403.55 146.33c-1.328 0.932-4.86-0.099-3.373-1.166 1.355-0.918 4.9 0.092 3.373 1.166z" fill="#fff" fill-opacity=".02"/>
<path d="m791.18 145.07c-3.532 0.654-2.416-2.454 0.478-2.148 2.205 0.235 1.156 1.906-0.478 2.148z" fill="#fff" fill-opacity=".02"/>
<path d="m606.74 144.98c-2.151 0.37-2.895-0.028-2.204-1.187 2.164-0.363 2.908 0.028 2.204 1.187z" fill="#fff" fill-opacity=".02"/>
<path d="m194.91 144.99c-1.315 0.967-4.873-0.05-3.373-1.138 1.328-0.939 4.874 0.078 3.373 1.138z" fill="#fff" fill-opacity=".02"/>
<path d="m658.55 144.26c-2.165 0.363-2.882-0.036-2.178-1.195 2.178-0.356 2.895 0.043 2.178 1.195z" fill="#fff" fill-opacity=".02"/>
<path d="m998.4 143.59c-2.151 0.392-2.895 0-2.244-1.166 2.164-0.377 2.908 0.014 2.244 1.166z" fill="#fff" fill-opacity=".02"/>
<path d="m797.86 143.6c-2.164 0.369-2.908-0.029-2.204-1.188 2.164-0.356 2.908 0.043 2.204 1.188z" fill="#fff" fill-opacity=".02"/>
<path d="m931.89 142.16c-1.288 0.967-4.9-0.021-3.347-1.11 1.289-0.967 4.874 0.036 3.347 1.11z" fill="#fff" fill-opacity=".02"/>
<path d="m753.83 141.4c-1.301 1.003-4.753-0.085-3.306-1.152 1.328-0.989 4.78 0.099 3.306 1.152z" fill="#fff" fill-opacity=".02"/>
<path d="m478.87 141.49c-1.474 0.689-2.324 0.519-2.549-0.52 1.5-0.682 2.337-0.505 2.549 0.52z" fill="#fff" fill-opacity=".02"/>
<path d="m959.58 141.33c-3.001-0.583-5.935-1.273-8.737-2.112 3.519-1.273 8.817-0.448 8.737 2.112z" fill="#fff" fill-opacity=".02"/>
<path d="m845.57 140.82c-0.186-2.369-3.957 1.102 0 0z" fill="#fff" fill-opacity=".02"/>
<path d="m234.92 140.58c-2.151 0.377-2.881-0.014-2.204-1.18 2.177-0.363 2.908 0.028 2.204 1.18z" fill="#fff" fill-opacity=".02"/>
<path d="m617.36 139.72c-1.833 0.355-2.497 0.028-1.966-0.982 1.846-0.348 2.51-0.021 1.966 0.982z" fill="#fff" fill-opacity=".02"/>
<path d="m290.44 139.92c-1.713 0.747-3.877-0.839-2.058-1.501 1.726-0.732 3.904 0.847 2.058 1.501z" fill="#fff" fill-opacity=".02"/>
<path d="m860.36 138.52c-2.164 0.377-2.908-0.014-2.23-1.173 2.164-0.37 2.908 0.028 2.23 1.173z" fill="#fff" fill-opacity=".02"/>
<path d="m832.32 138.67c-2.165 0.355-2.895-0.05-2.165-1.202 2.191-0.341 2.908 0.064 2.165 1.202z" fill="#fff" fill-opacity=".02"/>
<path d="m42.228 138.45c-1.7528 0.917-4.8201-0.676-3.1338-1.643 1.7794-0.918 4.8201 0.683 3.1338 1.643z" fill="#fff" fill-opacity=".02"/>
<path d="m694.25 137.15c-2.164 0.363-2.894-0.035-2.191-1.195 2.178-0.355 2.908 0.043 2.191 1.195z" fill="#fff" fill-opacity=".02"/>
<path d="m329.31 137.25c-2.124 0.405-2.881 0.021-2.257-1.145 2.151-0.399 2.908-0.015 2.257 1.145z" fill="#fff" fill-opacity=".02"/>
<path d="m606.85 136.22c2.072-2.127-4.421-0.107 0 0z" fill="#fff" fill-opacity=".02"/>
<path d="m432.76 136.5c-2.151 0.384-2.895-7e-3 -2.231-1.174 2.164-0.369 2.908 0.022 2.231 1.174z" fill="#fff" fill-opacity=".02"/>
<path d="m1174.6 135.7c-1.3 1.045-4.74-0.078-3.2-1.138 1.3-1.024 4.74 0.093 3.2 1.138z" fill="#fff" fill-opacity=".02"/>
<path d="m534.98 135.71c-2.151 0.37-2.894-0.029-2.204-1.195 2.178-0.349 2.908 0.05 2.204 1.195z" fill="#fff" fill-opacity=".02"/>
<path d="m489.26 135.71c-1.288 0.875-4.275-0.249-2.894-1.166 1.327-0.861 4.289 0.256 2.894 1.166z" fill="#fff" fill-opacity=".02"/>
<path d="m808.4 135.05c-2.151 0.398-2.895 7e-3 -2.258-1.166 2.152-0.377 2.895 7e-3 2.258 1.166z" fill="#fff" fill-opacity=".02"/>
<path d="m1187.2 134.28c-2.16 0.356-2.88-0.05-2.16-1.209 2.16-0.349 2.88 0.057 2.16 1.209z" fill="#fff" fill-opacity=".02"/>
<path d="m217.64 134.36c-2.151 0.363-2.895-0.036-2.191-1.195 2.178-0.348 2.908 0.05 2.191 1.195z" fill="#fff" fill-opacity=".02"/>
<path d="m1026.3 133.61c-2.16 0.37-2.9-0.029-2.21-1.195 2.17-0.356 2.9 0.043 2.21 1.195z" fill="#fff" fill-opacity=".02"/>
<path d="m551.01 133.61c-2.164 0.363-2.908-0.042-2.217-1.194 2.178-0.356 2.908 0.042 2.217 1.194z" fill="#fff" fill-opacity=".02"/>
<path d="m536.28 133.63c-2.165 0.342-2.882-0.064-2.151-1.216 2.191-0.334 2.908 0.071 2.151 1.216z" fill="#fff" fill-opacity=".02"/>
<path d="m609.34 132.22c-2.178 0.348-2.908-0.057-2.191-1.209 2.178-0.342 2.908 0.063 2.191 1.209z" fill="#fff" fill-opacity=".02"/>
<path d="m465.97 132.16c-2.152 0.37-2.895-0.021-2.205-1.188 2.178-0.362 2.908 0.036 2.205 1.188z" fill="#fff" fill-opacity=".02"/>
<path d="m306.59 131.51c-2.151 0.377-2.894-0.021-2.23-1.18 2.177-0.363 2.921 0.028 2.23 1.18z" fill="#fff" fill-opacity=".02"/>
<path d="m1198.7 130.16c-0.05-2.368-4.01 1.039 0 0z" fill="#fff" fill-opacity=".02"/>
<path d="m523.15 129.43c-2.151 0.384-2.895-7e-3 -2.218-1.166 2.165-0.377 2.908 7e-3 2.218 1.166z" fill="#fff" fill-opacity=".02"/>
<path d="m242.93 129.31c-2.151 0.37-2.894-0.021-2.23-1.187 2.191-0.363 2.921 0.035 2.23 1.187z" fill="#fff" fill-opacity=".02"/>
<path d="m731.53 128.65c-2.164 0.356-2.894-0.043-2.164-1.202 2.178-0.348 2.895 0.05 2.164 1.202z" fill="#fff" fill-opacity=".02"/>
<path d="m403.62 127.92c-2.151 0.362-2.881-0.036-2.191-1.195 2.178-0.363 2.908 0.035 2.191 1.195z" fill="#fff" fill-opacity=".02"/>
<path d="m808.76 127.16c-2.138 0.405-2.882 0.021-2.244-1.152 2.151-0.399 2.894-7e-3 2.244 1.152z" fill="#fff" fill-opacity=".02"/>
<path d="m615.86 127.19c-2.151 0.376-2.881-0.022-2.191-1.195 2.165-0.356 2.895 0.042 2.191 1.195z" fill="#fff" fill-opacity=".02"/>
<path d="m1172.4 126.5c-2.17 0.37-2.91-0.028-2.22-1.188 2.16-0.355 2.89 0.036 2.22 1.188z" fill="#fff" fill-opacity=".02"/>
<path d="m596.14 125.76c-2.151 0.377-2.895-0.022-2.217-1.181 2.177-0.37 2.908 0.021 2.217 1.181z" fill="#fff" fill-opacity=".02"/>
<path d="m1304.7 125.1c-1.27 1.024-4.94 0.021-3.19-1.067 1.28-1.003 4.93 0 3.19 1.067z" fill="#fff" fill-opacity=".02"/>
<path d="m1031.7 124.82c-1.68 0.747-3.94-0.797-2.16-1.494 1.7-0.732 3.94 0.811 2.16 1.494z" fill="#fff" fill-opacity=".02"/>
<path d="m458.11 124.81c-1.833 0.341-2.497 7e-3 -1.979-0.996 1.872-0.334 2.536 0 1.979 0.996z" fill="#fff" fill-opacity=".02"/>
<path d="m46.37 125c-1.6997-0.505-1.6731-0.981 0.0797-1.437 1.7262 0.513 1.6996 0.996-0.0797 1.437z" fill="#fff" fill-opacity=".02"/>
<path d="m787.34 124.29c-1.979 0.84-3.904-1.059-2.138-1.77 1.992-0.84 3.93 1.066 2.138 1.77z" fill="#fff" fill-opacity=".02"/>
<path d="m352.95 124.26c-0.69-0.349-0.69-0.349 0 0z" fill="#fff" fill-opacity=".02"/>
<path d="m799.51 122.92c-2.124 0.405-2.881 0.021-2.257-1.152 2.151-0.399 2.895-0.015 2.257 1.152z" fill="#fff" fill-opacity=".02"/>
<path d="m456.67 122.98c-2.151 0.37-2.894-0.028-2.217-1.188 2.164-0.362 2.908 0.036 2.217 1.188z" fill="#fff" fill-opacity=".02"/>
<path d="m570.74 121.5c-2.151 0.37-2.881-0.028-2.191-1.187 2.178-0.356 2.908 0.042 2.191 1.187z" fill="#fff" fill-opacity=".02"/>
<path d="m408.74 121.5c-2.138 0.384-2.881-7e-3 -2.231-1.173 2.165-0.377 2.908 0.014 2.231 1.173z" fill="#fff" fill-opacity=".02"/>
<path d="m80.724 120c-1.2747 0.974-4.8202-0.043-3.3861-1.131 1.3279-0.946 4.8733 0.057 3.3861 1.131z" fill="#fff" fill-opacity=".02"/>
<path d="m377.31 120.17c-1.647-0.711-6.44-1.145-4.502-2.766 1.129-0.085 3.386-0.263 4.515-0.349 0 0.776-0.013 2.34-0.013 3.115z" fill="#fff" fill-opacity=".02"/>
<path d="m1172.5 117.98c-2.18 0.355-2.91-0.043-2.19-1.195 2.18-0.349 2.91 0.049 2.19 1.195z" fill="#fff" fill-opacity=".02"/>
<path d="m831.23 117.89c-2.151 0.37-2.881-0.029-2.204-1.188 2.164-0.356 2.908 0.036 2.204 1.188z" fill="#fff" fill-opacity=".02"/>
<path d="m605.23 118.09c-0.133-2.369-4.024 1.066 0 0z" fill="#fff" fill-opacity=".02"/>
<path d="m192.47 117.96c-2.151 0.362-2.882-0.036-2.191-1.195 2.178-0.363 2.908 0.035 2.191 1.195z" fill="#fff" fill-opacity=".02"/>
<path d="m957.47 115.73c-2.351 0.456-3.267-1.621-0.943-1.906 2.363-0.455 3.293 1.636 0.943 1.906z" fill="#fff" fill-opacity=".02"/>
<path d="m441.87 115.25c-1.779 0.896-4.794-0.69-3.24-1.686 1.779-0.867 4.793 0.719 3.24 1.686z" fill="#fff" fill-opacity=".02"/>
<path d="m176.48 115.08c-2.138 0.391-2.881 0-2.217-1.173 2.177-0.37 2.908 0.021 2.217 1.173z" fill="#fff" fill-opacity=".02"/>
<path d="m894.83 114.35c-2.151 0.377-2.882-0.014-2.204-1.181 2.177-0.369 2.908 0.022 2.204 1.181z" fill="#fff" fill-opacity=".02"/>
<path d="m708.81 114.34c-2.005 0.832-3.878-1.074-2.125-1.792 2.005-0.804 3.917 1.095 2.125 1.792z" fill="#fff" fill-opacity=".02"/>
<path d="m476.57 113.01c-2.138 0.398-2.882 7e-3 -2.244-1.159 2.151-0.392 2.908-8e-3 2.244 1.159z" fill="#fff" fill-opacity=".02"/>
<path d="m369.17 112.25c-2.138 0.398-2.882 7e-3 -2.244-1.16 2.151-0.391 2.894 0 2.244 1.16z" fill="#fff" fill-opacity=".02"/>
<path d="m885.74 111.56c-2.178 0.334-2.895-0.078-2.151-1.224 2.191-0.327 2.908 0.079 2.151 1.224z" fill="#fff" fill-opacity=".02"/>
<path d="m728.92 111.64c-2.164 0.356-2.894-0.035-2.177-1.194 2.177-0.349 2.908 0.049 2.177 1.194z" fill="#fff" fill-opacity=".02"/>
<path d="m164.52 110.78c-2.138 0.398-2.882 0.014-2.244-1.159 2.177-0.385 2.921 7e-3 2.244 1.159z" fill="#fff" fill-opacity=".02"/>
<path d="m533.68 109.93c-1.859 0.306-2.496-0.035-1.912-1.031 1.899-0.306 2.537 0.036 1.912 1.031z" fill="#fff" fill-opacity=".02"/>
<path d="m383.54 110.05c-1.54 0.761-4.754-0.448-3.399-1.437 1.553-0.711 4.833 0.448 3.399 1.437z" fill="#fff" fill-opacity=".02"/>
<path d="m378.18 110.08c-0.664-0.356-0.664-0.356 0 0z" fill="#fff" fill-opacity=".02"/>
<path d="m335.64 109.97c-1.78 0.875-4.794-0.732-3.174-1.692 1.819-0.854 4.847 0.725 3.174 1.692z" fill="#fff" fill-opacity=".02"/>
<path d="m950.55 109.37c-2.137 0.405-2.894 0.014-2.244-1.159 2.165-0.384 2.908 7e-3 2.244 1.159z" fill="#fff" fill-opacity=".02"/>
<path d="m1153.7 108.42c-1.86 0.342-2.51 7e-3 -1.95-0.988 1.87-0.327 2.52 0 1.95 0.988z" fill="#fff" fill-opacity=".02"/>
<path d="m1015.8 107.85c-2.15 0.406-2.91 0.022-2.3-1.145 2.16-0.391 2.93-0.014 2.3 1.145z" fill="#fff" fill-opacity=".02"/>
<path d="m997.06 107.18c-2.138 0.413-2.895 0.036-2.271-1.137 2.138-0.406 2.895-0.029 2.271 1.137z" fill="#fff" fill-opacity=".02"/>
<path d="m512.34 107.18c-0.651-0.355-0.651-0.355 0 0z" fill="#fff" fill-opacity=".02"/>
<path d="m892.42 106.55c-4.568 0.228 0-2.952 1.155-0.74-0.292 0.185-0.863 0.555-1.155 0.74z" fill="#fff" fill-opacity=".02"/>
<path d="m966.06 105.89c-1.049 0.697-3.851 0.576-4.09-0.434 0.226-1.387 5.537-0.939 4.09 0.434z" fill="#fff" fill-opacity=".02"/>
<path d="m1273.1 105.22c-0.28-2.361-3.93 1.138 0 0z" fill="#fff" fill-opacity=".02"/>
<path d="m832.46 103.72c-2.152 0.392-2.895 0-2.245-1.173 2.165-0.377 2.908 0.014 2.245 1.173z" fill="#fff" fill-opacity=".02"/>
<path d="m590.75 103.69c-1.328 0.932-4.86-0.114-3.333-1.173 1.368-0.918 4.887 0.106 3.333 1.173z" fill="#fff" fill-opacity=".02"/>
<path d="m1290.3 103.06c-0.22-2.361-3.97 1.11 0 0z" fill="#fff" fill-opacity=".02"/>
<path d="m371.75 100.92c-0.093-2.3681-4.01 1.06 0 0z" fill="#fff" fill-opacity=".02"/>
<path d="m365.18 100.89c-2.151 0.363-2.868-0.043-2.164-1.2018 2.164-0.3485 2.894 0.0497 2.164 1.2018z" fill="#fff" fill-opacity=".02"/>
<path d="m234.93 100.82c-2.151 0.348-2.881-0.057-2.164-1.2162 2.191-0.3343 2.908 0.064 2.164 1.2162z" fill="#fff" fill-opacity=".02"/>
<path d="m58.361 100.2c-2.1644 0.355-2.8948-0.05-2.191-1.2024 2.191-0.3485 2.9213 0.0569 2.191 1.2024z" fill="#fff" fill-opacity=".02"/>
<path d="m1274.4 99.293c-1.21 1.0313-4.92 0.1138-3.31-1.0099 1.21-1.01 4.93-0.0925 3.31 1.0099z" fill="#fff" fill-opacity=".02"/>
<path d="m1264 98.019c-2.15 0.3983-2.89 0.0142-2.24-1.1593 2.15-0.3911 2.9 0 2.24 1.1593z" fill="#fff" fill-opacity=".02"/>
<path d="m1140.6 97.281c-1.31 1.0029-4.79-0.0853-3.25-1.145 1.33-0.9886 4.82 0.0925 3.25 1.145z" fill="#fff" fill-opacity=".02"/>
<path d="m1009.1 97.343c-2.16 0.3769-2.89-0.0142-2.21-1.1806 2.16-0.3698 2.9 0.0213 2.21 1.1806z" fill="#fff" fill-opacity=".02"/>
<path d="m776.47 97.237c-1.274 1.0028-4.86-0.0213-3.253-1.1023 1.288-0.9744 4.887 0.0355 3.253 1.1023z" fill="#fff" fill-opacity=".02"/>
<path d="m586.64 97.029c-1.699 0.9032-4.939-0.5761-3.266-1.5789 1.726-0.8961 4.979 0.5832 3.266 1.5789z" fill="#fff" fill-opacity=".02"/>
<path d="m1031.7 95.31c-0.23-2.3684-3.94 1.1237 0 0z" fill="#fff" fill-opacity=".02"/>
<path d="m576.29 95.103c-1.288 1.1166-4.542-0.1422-3.121-1.1734 1.302-1.1166 4.568 0.1493 3.121 1.1734z" fill="#fff" fill-opacity=".02"/>
<path d="m355.76 95.168c-2.151 0.377-2.882-0.0213-2.218-1.1877 2.178-0.3627 2.921 0.0356 2.218 1.1877z" fill="#fff" fill-opacity=".02"/>
<path d="m312 95.23c1.965-2.1479-4.422-0.0498 0 0z" fill="#fff" fill-opacity=".02"/>
<path d="m252.26 95.218c-2.164 0.3484-2.881-0.0498-2.151-1.2091 2.178-0.3414 2.895 0.064 2.151 1.2091z" fill="#fff" fill-opacity=".02"/>
<path d="m123.35 95.211c-2.151 0.377-2.881-0.0142-2.217-1.1806 2.178-0.3627 2.908 0.0285 2.217 1.1806z" fill="#fff" fill-opacity=".02"/>
<path d="m1023.4 94.479c-2.15 0.3769-2.89-0.0214-2.19-1.1807 2.16-0.3627 2.89 0.0356 2.19 1.1807z" fill="#fff" fill-opacity=".02"/>
<path d="m1002.4 93.306c-2.05 0.7895-4.864-1.017-2.27-1.6998 2.07-0.7823 4.87 1.0171 2.27 1.6998z" fill="#fff" fill-opacity=".02"/>
<path d="m561.61 92.813c-1.832 0.3485-2.51 0.0213-2.032-0.9886 1.859-0.3414 2.537-0.0142 2.032 0.9886z" fill="#fff" fill-opacity=".02"/>
<path d="m1130.9 92.402c-0.17-2.3683-3.96 1.0953 0 0z" fill="#fff" fill-opacity=".02"/>
<path d="m346.52 92.416c-0.186-2.3684-3.957 1.1023 0 0z" fill="#fff" fill-opacity=".02"/>
<path d="m882.98 91.61c-2.151 0.3841-2.895-0.0071-2.231-1.1735 2.164-0.3769 2.908 0.0142 2.231 1.1735z" fill="#fff" fill-opacity=".02"/>
<path d="m565.58 91.646c-2.165 0.3698-2.908-0.0284-2.231-1.1948 2.178-0.3556 2.921 0.0355 2.231 1.1948z" fill="#fff" fill-opacity=".02"/>
<path d="m847.18 90.318c-2.191 0.3556-2.908-0.0427-2.178-1.1949 2.191-0.3413 2.909 0.0569 2.178 1.1949z" fill="#fff" fill-opacity=".02"/>
<path d="m408.88 89.501c-1.78 0.8037-3.665-0.8961-1.912-1.5433 1.806-0.7895 3.678 0.9104 1.912 1.5433z" fill="#fff" fill-opacity=".02"/>
<path d="m105.82 89.492c-2.138 0.3699-2.868-0.0213-2.204-1.1877 2.178-0.3627 2.908 0.0356 2.204 1.1877z" fill="#fff" fill-opacity=".02"/>
<path d="m460.5 88.767c-2.151 0.3698-2.881-0.0213-2.204-1.1877 2.178-0.3556 2.921 0.0355 2.204 1.1877z" fill="#fff" fill-opacity=".02"/>
<path d="m289.44 88.808c-2.656 0.0996-5.325 0.1565-8.007 0.1992-0.027-0.4196-0.067-1.2589-0.08-1.6785 2.881 0.2133 6.652-0.2987 8.087 1.4793z" fill="#fff" fill-opacity=".02"/>
<path d="m763.4 88.055c-2.151 0.3769-2.881-0.0214-2.204-1.1878 2.178-0.3627 2.908 0.0356 2.204 1.1878z" fill="#fff" fill-opacity=".02"/>
<path d="m614.47 85.9c-2.152 0.3769-2.882-0.0143-2.205-1.1807 2.165-0.3627 2.908 0.0285 2.205 1.1807z" fill="#fff" fill-opacity=".02"/>
<path d="m63.366 84.536c-1.2084 0.8463-4.4086-0.0925-3.2002-1.0811 1.2349-0.825 4.382 0.1138 3.2002 1.0811z" fill="#fff" fill-opacity=".02"/>
<path d="m479.28 83.83c-0.225-2.3683-3.93 1.1238 0 0z" fill="#fff" fill-opacity=".02"/>
<path d="m299.17 84.202c-1.7-0.2916-3.426-0.6116-5.152-0.9246 0.624-0.6756 1.633-1.2588 2.018-1.9985-1.089 0.0071-2.164 0.0783-3.253 0.2134 0.372-0.9601 0.704-1.9132 1.009-2.8875 1.301 0.3911 2.563 0.7752 3.824 1.1521-0.026 0.3556-0.079 1.0597-0.106 1.4153 0.491 1.0242 1.089 2.0341 1.66 3.0298z" fill="#fff" fill-opacity=".02"/>
<path d="m933.35 83.084c-2.151 0.3911-2.895 0-2.244-1.1664 2.165-0.377 2.908 0.0071 2.244 1.1664z" fill="#fff" fill-opacity=".02"/>
<path d="m321 83.183c-1.487 0.6827-2.337 0.4978-2.523-0.5406 1.514-0.6614 2.364-0.4836 2.523 0.5406z" fill="#fff" fill-opacity=".02"/>
<path d="m1104.3 82.07c-1.05 0.7681-4.01-0.0285-2.79-0.9104 1.07-0.7326 4.05 0.0285 2.79 0.9104z" fill="#fff" fill-opacity=".02"/>
<path d="m597.39 82.382c-2.151 0.3841-2.881-0.0142-2.204-1.1806 2.164-0.3698 2.895 0.0285 2.204 1.1806z" fill="#fff" fill-opacity=".02"/>
<path d="m377.06 82.402c-2.165 0.3627-2.882-0.0356-2.178-1.1949 2.178-0.3556 2.908 0.0427 2.178 1.1949z" fill="#fff" fill-opacity=".02"/>
<path d="m405.98 80.987c-1.859 0.3343-2.523 0-1.965-1.0028 1.872-0.32 2.523 0.0142 1.965 1.0028z" fill="#fff" fill-opacity=".02"/>
<path d="m346.55 80.908c-2.138 0.377-2.882-0.0142-2.244-1.1806 2.164-0.3698 2.921 0.0214 2.244 1.1806z" fill="#fff" fill-opacity=".02"/>
<path d="m860.43 80.235c-2.151 0.384-2.895-0.0071-2.217-1.1735 2.164-0.3841 2.908 0.0071 2.217 1.1735z" fill="#fff" fill-opacity=".02"/>
<path d="m708.92 80.118c-2.164 0.3628-2.895-0.0356-2.191-1.1948 2.178-0.3485 2.908 0.0498 2.191 1.1948z" fill="#fff" fill-opacity=".02"/>
<path d="m720.8 79.592c-1.726-0.4836-1.726-0.9672 0-1.4509 1.739 0.4908 1.739 0.9744 0 1.4509z" fill="#fff" fill-opacity=".02"/>
<path d="m403.51 78.889c-2.151 0.384-2.895-0.0142-2.231-1.1806 2.164-0.3699 2.908 0.0213 2.231 1.1806z" fill="#fff" fill-opacity=".02"/>
<path d="m577.57 78.247c-2.164 0.3769-2.908-0.0214-2.217-1.1736 2.178-0.3627 2.921 0.0285 2.217 1.1736z" fill="#fff" fill-opacity=".02"/>
<path d="m1095.3 77.254c-1.22 0.889-4.36-0.128-2.94-1.0739 1.25-0.8677 4.43 0.1209 2.94 1.0739z" fill="#fff" fill-opacity=".02"/>
<path d="m1016.9 77.544c-1.1 0.7965-3.95-0.1067-2.55-0.9531 1.11-0.7894 3.96 0.1138 2.55 0.9531z" fill="#fff" fill-opacity=".02"/>
<path d="m645.17 77.415c-2.151 0.3841-2.894-0.0071-2.244-1.1806 2.151-0.3698 2.908 0.0285 2.244 1.1806z" fill="#fff" fill-opacity=".02"/>
<path d="m528.45 76.726c-2.165 0.3841-2.895-0.0071-2.231-1.1735 2.177-0.3698 2.908 0.0143 2.231 1.1735z" fill="#fff" fill-opacity=".02"/>
<path d="m1274.5 76.175c-2.19 0.32-2.9-0.0853-2.1-1.2375 2.19-0.3129 2.88 0.0996 2.1 1.2375z" fill="#fff" fill-opacity=".02"/>
<path d="m971.91 75.915c-2.138 0.4054-2.895 0.0213-2.271-1.1522 2.165-0.3911 2.922-0.0071 2.271 1.1522z" fill="#fff" fill-opacity=".02"/>
<path d="m866.79 76.002c-2.164 0.3485-2.881-0.0568-2.151-1.2161 2.178-0.3343 2.895 0.0711 2.151 1.2161z" fill="#fff" fill-opacity=".02"/>
<path d="m1006 75.05c-2.16 0.3627-2.89-0.0356-2.19-1.1948 2.19-0.3414 2.92 0.0569 2.19 1.1948z" fill="#fff" fill-opacity=".02"/>
<path d="m970.4 73.96c-2.178 0.3414-2.882-0.064-2.125-1.2162 2.191-0.3271 2.895 0.0782 2.125 1.2162z" fill="#fff" fill-opacity=".02"/>
<path d="m643.8 73.122c-1.634 0.2062-3.267 0.3983-4.913 0.5832-0.359-0.2845-1.076-0.8464-1.434-1.1237 0.451-0.377 1.354-1.138 1.819-1.5149 1.527 0.6827 3.041 1.3726 4.528 2.0554z" fill="#fff" fill-opacity=".02"/>
<path d="m480.66 73.962c-1.859 0.3272-2.496-0.0071-1.912-1.0099 1.872-0.3271 2.51 0.0143 1.912 1.0099z" fill="#fff" fill-opacity=".02"/>
<path d="m276.13 72.936c-1.846 0.32-2.496-0.0213-1.952-1.0242 1.872-0.3129 2.523 0.0285 1.952 1.0242z" fill="#fff" fill-opacity=".02"/>
<path d="m888.07 72.289c-1.288 0.9815-4.847-0.0427-3.293-1.1237 1.301-0.9602 4.886 0.0498 3.293 1.1237z" fill="#fff" fill-opacity=".02"/>
<path d="m809.81 72.338c-2.138 0.4054-2.881 0.0214-2.257-1.1521 2.151-0.3912 2.894-0.0072 2.257 1.1521z" fill="#fff" fill-opacity=".02"/>
<path d="m736.92 71.677c-1.301 1.0313-4.793-0.064-3.187-1.1237 1.315-1.0242 4.794 0.0782 3.187 1.1237z" fill="#fff" fill-opacity=".02"/>
<path d="m1092.5 71.001c-1.27 0.9886-4.88 0.0071-3.31-1.0881 1.26-0.9744 4.87 0.0142 3.31 1.0881z" fill="#fff" fill-opacity=".02"/>
<path d="m481.95 68.712c-1.832 0.3343-2.483 0-1.939-1.0099 1.859-0.3271 2.51 0.0142 1.939 1.0099z" fill="#fff" fill-opacity=".02"/>
<path d="m805.36 68.213c-1.859 0.3129-2.483-0.0356-1.859-1.0384 1.859-0.2987 2.484 0.0498 1.859 1.0384z" fill="#fff" fill-opacity=".02"/>
<path d="m707.55 68.285c-0.173-2.3612-3.971 1.0953 0 0z" fill="#fff" fill-opacity=".02"/>
<path d="m597.41 68.185c-2.165 0.3841-2.908-0.0142-2.231-1.1806 2.177-0.3627 2.908 0.0285 2.231 1.1806z" fill="#fff" fill-opacity=".02"/>
<path d="m1152.3 67.267c-1.16 0.9033-4.43-0.0214-3.04-1.0099 1.17-0.8748 4.45 0.0284 3.04 1.0099z" fill="#fff" fill-opacity=".02"/>
<path d="m691.78 67.532c-0.305-2.3612-3.904 1.1522 0 0z" fill="#fff" fill-opacity=".02"/>
<path d="m724.84 66.001c-2.138 0.3983-2.895 0.0071-2.244-1.1664 2.151-0.384 2.894 0.0071 2.244 1.1664z" fill="#fff" fill-opacity=".02"/>
<path d="m156.49 66.079c-2.165 0.3698-2.908-0.0284-2.245-1.1948 2.178-0.3485 2.922 0.0498 2.245 1.1948z" fill="#fff" fill-opacity=".02"/>
<path d="m1068.8 64.551c-2.16 0.3698-2.89-0.0214-2.2-1.1878 2.16-0.3627 2.89 0.0356 2.2 1.1878z" fill="#fff" fill-opacity=".02"/>
<path d="m369 63.192c-2.151 0.377-2.881-0.0142-2.204-1.1806 2.178-0.3627 2.921 0.0285 2.204 1.1806z" fill="#fff" fill-opacity=".02"/>
<path d="m710.33 62.397c-2.152 0.377-2.895-0.0142-2.218-1.1806 2.165-0.3627 2.908 0.0285 2.218 1.1806z" fill="#fff" fill-opacity=".02"/>
<path d="m682.5 62.282c-1.872 0.2987-2.497-0.0498-1.859-1.0455 1.885-0.2916 2.509 0.0569 1.859 1.0455z" fill="#fff" fill-opacity=".02"/>
<path d="m900.04 61.002c-2.152 0.3769-2.882-0.0143-2.205-1.1807 2.165-0.3698 2.895 0.0285 2.205 1.1807z" fill="#fff" fill-opacity=".02"/>
<path d="m1212.3 60.346c-2.15 0.3769-2.89-0.0213-2.2-1.1806 2.16-0.3698 2.89 0.0213 2.2 1.1806z" fill="#fff" fill-opacity=".02"/>
<path d="m896.23 59.714c-1.713-0.4765-1.713-0.9602 0.013-1.4509 1.74 0.4836 1.739 0.9673-0.013 1.4509z" fill="#fff" fill-opacity=".02"/>
<path d="m837.67 59.55c-2.018 0.8463-3.824-1.0953-2.045-1.7851 2.045-0.8393 3.864 1.1023 2.045 1.7851z" fill="#fff" fill-opacity=".02"/>
<path d="m474.94 58.904c-1.301 1.1237-4.555-0.1494-3.068-1.1807 1.342-1.1023 4.582 0.1708 3.068 1.1807z" fill="#fff" fill-opacity=".02"/>
<path d="m797.25 58.391c-1.275-0.0214-3.811-0.064-5.086-0.0854 0.85-0.9743 1.713-1.9558 2.629-2.923 0.824 1.0099 1.634 2.0127 2.457 3.0084z" fill="#fff" fill-opacity=".02"/>
<path d="m1320 56.962c-3.08 0.5761-3.08-1.7994 0-1.2518v1.2518z" fill="#fff" fill-opacity=".02"/>
<path d="m1132.4 56.434c-1.93 0.7823-4.17-0.9957-2.15-1.6927 1.96-0.7823 4.2 1.0028 2.15 1.6927z" fill="#fff" fill-opacity=".02"/>
<path d="m443.52 56.797c-2.125 0.4054-2.882 0.0143-2.244-1.1521 2.151-0.3983 2.908-0.0072 2.244 1.1521z" fill="#fff" fill-opacity=".02"/>
<path d="m227.98 56.045c-0.252-2.3683-3.903 1.138 0 0z" fill="#fff" fill-opacity=".02"/>
<path d="m258.59 55.46c-1.222 0.8748-4.342-0.128-3.081-1.0952 1.235-0.8748 4.329 0.1493 3.081 1.0952z" fill="#fff" fill-opacity=".02"/>
<path d="m1238.7 54.437c-1.18 0.9032-4.39-0.064-3.01-1.0384 1.21-0.8677 4.46 0.064 3.01 1.0384z" fill="#fff" fill-opacity=".02"/>
<path d="m885.66 54.598c-1.886 0.8036-4.276-0.9317-2.244-1.6501 1.912-0.7894 4.289 0.9388 2.244 1.6501z" fill="#fff" fill-opacity=".02"/>
<path d="m461.95 51.808c-2.164 0.3698-2.895-0.0285-2.217-1.1949 2.177-0.3556 2.921 0.0427 2.217 1.1949z" fill="#fff" fill-opacity=".02"/>
<path d="m260.13 51.826c-2.164 0.3556-2.894-0.0498-2.191-1.202 2.191-0.3414 2.922 0.064 2.191 1.202z" fill="#fff" fill-opacity=".02"/>
<path d="m873.34 51.166c-1.487 0.6899-2.337 0.5121-2.55-0.5263 1.501-0.6685 2.337-0.4978 2.55 0.5263z" fill="#fff" fill-opacity=".02"/>
<path d="m511.27 50.39c-2.151 0.3698-2.881-0.0213-2.191-1.1948 2.165-0.3628 2.895 0.0355 2.191 1.1948z" fill="#fff" fill-opacity=".02"/>
<path d="m245.01 49.665c-1.873 0.3058-2.497-0.0356-1.873-1.0384 1.899-0.2916 2.51 0.0569 1.873 1.0384z" fill="#fff" fill-opacity=".02"/>
<path d="m680.95 48.852c-1.978 0.0569-1.991-1.6998 0.014-1.6429 2.005-0.0427 2.005 1.7069-0.014 1.6429z" fill="#fff" fill-opacity=".02"/>
<path d="m1092.6 48.328c-0.26-2.3612-3.94 1.1379 0 0z" fill="#fff" fill-opacity=".02"/>
<path d="m26.44 46.778c-2.1378 0.384-2.8815 0-2.2175-1.1664 2.1776-0.3699 2.9213 0.0213 2.2175 1.1664z" fill="#fff" fill-opacity=".02"/>
<path d="m515.16 46.146c2.005-2.1265-4.435-0.064 0 0z" fill="#fff" fill-opacity=".02"/>
<path d="m464.58 45.497c-2.151 0.3556-2.881-0.0426-2.164-1.2019 2.178-0.3485 2.895 0.0498 2.164 1.2019z" fill="#fff" fill-opacity=".02"/>
<path d="m791.3 44.708c-2.164 0.377-2.894-0.0213-2.217-1.1806 2.178-0.3627 2.908 0.0285 2.217 1.1806z" fill="#fff" fill-opacity=".02"/>
<path d="m574.76 43.98c-2.151 0.384-2.895-0.0072-2.231-1.1807 2.151-0.3698 2.895 0.0214 2.231 1.1807z" fill="#fff" fill-opacity=".02"/>
<path d="m88.836 43.57c-1.4208 0.8179-4.8467-0.2774-3.3064-1.2944 1.4474-0.8392 4.8334 0.2987 3.3064 1.2944z" fill="#fff" fill-opacity=".02"/>
<path d="m823.15 43.302c-2.151 0.3841-2.894-0.0071-2.23-1.1735 2.164-0.3627 2.908 0.0285 2.23 1.1735z" fill="#fff" fill-opacity=".02"/>
<path d="m413.07 43.249c-2.018 0.3342-3.147-1.5149-0.996-1.7923 2.058-0.3201 3.187 1.522 0.996 1.7923z" fill="#fff" fill-opacity=".02"/>
<path d="m1003.6 41.847c-2.15 0.3769-2.89-0.0143-2.22-1.1806 2.17-0.3699 2.91 0.0284 2.22 1.1806z" fill="#fff" fill-opacity=".02"/>
<path d="m747.57 41.1c-2.151 0.3698-2.895-0.0213-2.231-1.1877 2.178-0.3627 2.921 0.0284 2.231 1.1877z" fill="#fff" fill-opacity=".02"/>
<path d="m233.45 40.972c-1.673 0.7681-3.93-0.7753-2.151-1.4722 1.7-0.7539 3.957 0.7894 2.151 1.4722z" fill="#fff" fill-opacity=".02"/>
<path d="m884.49 40.399c-2.125 0.4267-2.882 0.0426-2.284-1.138 2.138-0.4054 2.895-0.0284 2.284 1.138z" fill="#fff" fill-opacity=".02"/>
<path d="m136.44 40.297c-1.647 0.7539-3.944-0.7681-2.271-1.4935 1.686-0.7325 3.97 0.7823 2.271 1.4935z" fill="#fff" fill-opacity=".02"/>
<path d="m407.56 39.539c-1.845 0.3201-2.496-0.0284-1.938-1.0241 1.885-0.313 2.523 0.0284 1.938 1.0241z" fill="#fff" fill-opacity=".02"/>
<path d="m81.877 39.73c-1.8457 0.32-2.4964-0.0213-1.9254-1.0241 1.8855-0.3059 2.5229 0.0355 1.9254 1.0241z" fill="#fff" fill-opacity=".02"/>
<path d="m831.04 37.568c-2.138 0.3912-2.882 0.0071-2.244-1.1664 2.164-0.384 2.908 0.0071 2.244 1.1664z" fill="#fff" fill-opacity=".02"/>
<path d="m159.2 37.519c-2.138 0.3912-2.882 0-2.231-1.1735 2.177-0.3698 2.908 0.0213 2.231 1.1735z" fill="#fff" fill-opacity=".02"/>
<path d="m1072.8 36.762c-2.17 0.3698-2.9-0.0213-2.19-1.1806 2.17-0.3627 2.9 0.0356 2.19 1.1806z" fill="#fff" fill-opacity=".02"/>
<path d="m1167 35.405c-2.16 0.3912-2.9 0-2.24-1.1664 2.16-0.3769 2.91 0.0143 2.24 1.1664z" fill="#fff" fill-opacity=".02"/>
<path d="m995.76 35.434c-2.151 0.377-2.894-0.0213-2.217-1.1877 2.178-0.3556 2.908 0.0355 2.217 1.1877z" fill="#fff" fill-opacity=".02"/>
<path d="m374.42 35.222c-1.845 0.32-2.483-0.0214-1.885-1.0242 1.872-0.3058 2.51 0.0356 1.885 1.0242z" fill="#fff" fill-opacity=".02"/>
<path d="m1290.5 34.714c-2.16 0.3982-2.91 0.0071-2.23-1.1664 2.15-0.377 2.9 0.0142 2.23 1.1664z" fill="#fff" fill-opacity=".02"/>
<path d="m1294.5 34.146c-5.16 0.4552-0.12-3.2431 1.32-0.8463-0.33 0.2133-0.98 0.64-1.32 0.8463z" fill="#fff" fill-opacity=".02"/>
<path d="m751.33 33.328c-0.212-2.3683-3.944 1.1167 0 0z" fill="#fff" fill-opacity=".02"/>
<path d="m928.08 32.658c-1.926 0.8535-4.17-0.9316-2.191-1.657 1.925-0.8464 4.156 0.9458 2.191 1.657z" fill="#fff" fill-opacity=".02"/>
<path d="m506.83 32.616c-2.177 0.32-2.881-0.0925-2.084-1.2375 2.204-0.3059 2.894 0.1066 2.084 1.2375z" fill="#fff" fill-opacity=".02"/>
<path d="m503.07 32.596c-2.178 0.3272-2.895-0.0853-2.151-1.2304 2.204-0.3129 2.921 0.0996 2.151 1.2304z" fill="#fff" fill-opacity=".02"/>
<path d="m738.22 31.095c-2.138 0.4125-2.895 0.0285-2.271-1.145 2.151-0.3983 2.908-0.0142 2.271 1.145z" fill="#fff" fill-opacity=".02"/>
<path d="m236.44 31.187c-2.138 0.384-2.882-0.0071-2.218-1.1735 2.165-0.3769 2.908 0.0142 2.218 1.1735z" fill="#fff" fill-opacity=".02"/>
<path d="m861.68 30.47c-2.164 0.3912-2.908 0-2.244-1.1735 2.178-0.3699 2.921 0.0213 2.244 1.1735z" fill="#fff" fill-opacity=".02"/>
<path d="m499.21 30.503c-2.164 0.3698-2.895-0.0285-2.191-1.1878 2.178-0.3556 2.908 0.0356 2.191 1.1878z" fill="#fff" fill-opacity=".02"/>
<path d="m1261.1 29.046c-1.81 0.9672-5.21-0.5974-2.71-1.4722 1.82-0.9317 5.06 0.5761 2.71 1.4722z" fill="#fff" fill-opacity=".02"/>
<path d="m1308.1 27.027c0.5 1.1592-3.24 1.8847-3.8 0.6116-0.48-1.138 3.25-1.8918 3.8-0.6116z" fill="#fff" fill-opacity=".02"/>
<path d="m370.16 28.305c-1.341 0.953-4.873-0.0996-3.253-1.1664 1.368-0.9388 4.9 0.1209 3.253 1.1664z" fill="#fff" fill-opacity=".02"/>
<path d="m232.2 24.774c-2.151 0.377-2.894-0.0214-2.217-1.1877 2.191-0.3556 2.921 0.0356 2.217 1.1877z" fill="#fff" fill-opacity=".02"/>
<path d="m829.42 24.19c-1.859 0.3413-2.509 0.0071-1.952-0.9957 1.859-0.3272 2.51 0.0071 1.952 0.9957z" fill="#fff" fill-opacity=".02"/>
<path d="m278.76 24.053c-2.151 0.3627-2.881-0.0284-2.204-1.1948 2.177-0.3556 2.921 0.0427 2.204 1.1948z" fill="#fff" fill-opacity=".02"/>
<path d="m1066 23.256c-1.06 0.9459-4.48 0.1494-3.04-0.889 1.06-0.9388 4.48-0.1351 3.04 0.889z" fill="#fff" fill-opacity=".02"/>
<path d="m748.82 22.682c-2.164 0.384-2.895-0.0143-2.204-1.1735 2.164-0.3699 2.908 0.0213 2.204 1.1735z" fill="#fff" fill-opacity=".02"/>
<path d="m430.28 22.014c-0.318-2.3613-3.89 1.1592 0 0z" fill="#fff" fill-opacity=".02"/>
<path d="m805.48 16.927c-0.663 1.0313-0.398 2.5746-3.093 2.6315-0.757-0.7894-1.474-1.6002-2.152-2.4252 1.302-0.0498 3.931-0.1494 5.245-0.2063z" fill="#fff" fill-opacity=".02"/>
<path d="m213.2 18.377c-1.846 0.3201-2.483-0.0213-1.899-1.0312 1.872-0.3059 2.497 0.0355 1.899 1.0312z" fill="#fff" fill-opacity=".02"/>
<path d="m1015.6 17.618c-2.17 0.3627-2.9-0.0356-2.2-1.1948 2.18-0.3485 2.91 0.0497 2.2 1.1948z" fill="#fff" fill-opacity=".02"/>
<path d="m295.99 17.647c-2.125 0.3983-2.882 0.0071-2.244-1.1664 2.164-0.3841 2.908 0.0071 2.244 1.1664z" fill="#fff" fill-opacity=".02"/>
<path d="m464.6 14.773c-2.164 0.3485-2.881-0.0498-2.151-1.202 2.191-0.3413 2.908 0.064 2.151 1.202z" fill="#fff" fill-opacity=".02"/>
<path d="m573.56 14.038c-2.138 0.384-2.881-0.0071-2.217-1.1735 2.177-0.3769 2.908 0.0142 2.217 1.1735z" fill="#fff" fill-opacity=".02"/>
<path d="m423.34 14.22c-1.314 1.0597-4.66-0.1351-3.173-1.1806 1.328-1.0454 4.661 0.1494 3.173 1.1806z" fill="#fff" fill-opacity=".02"/>
<path d="m229.5 13.407c-2.138 0.3841-2.881-0.0071-2.204-1.1735 2.178-0.3698 2.908 0.0214 2.204 1.1735z" fill="#fff" fill-opacity=".02"/>
<path d="m996.85 11.281c-1.195 0.8677-4.461-0.0497-3.04-1.0383 1.208-0.86059 4.448 0.0711 3.04 1.0383z" fill="#fff" fill-opacity=".02"/>
<path d="m831.19 9.6309c-1.859 0.31293-2.483-0.02842-1.886-1.0312 1.873-0.2987 2.51 0.04264 1.886 1.0312z" fill="#fff" fill-opacity=".02"/>
<path d="m659.87 9.871c-1.713-0.47651-1.7-0.96015 0.053-1.4367 1.739 0.49074 1.713 0.96726-0.053 1.4367z" fill="#fff" fill-opacity=".02"/>
<path d="m216.07 8.2022c-1.7 0.66853-3.878-0.87482-2.231-1.586 1.726-0.66142 3.89 0.89616 2.231 1.586z" fill="#fff" fill-opacity=".02"/>
<path d="m90.085 8.4166c-2.1378 0.38405-2.8814-0.01425-2.2175-1.1806 2.1777-0.36272 2.908 0.02847 2.2175 1.1806z" fill="#fff" fill-opacity=".02"/>
<path d="m219.1 5.7394c-2.165 0.33427-2.882-0.07115-2.125-1.2233 2.191-0.32716 2.895 0.07826 2.125 1.2233z" fill="#fff" fill-opacity=".02"/>
<path d="m802.85 4.9869c-1.793 1.1095-4.595-0.67565-2.749-1.5931 1.806-1.0882 4.568 0.68987 2.749 1.5931z" fill="#fff" fill-opacity=".02"/>
<path d="m572.95 4.9871c-0.133-2.3683-3.957 1.081 0 0z" fill="#fff" fill-opacity=".02"/>
<path d="m796.33 4.1624c-2.151 0.36271-2.881-0.03557-2.164-1.202 2.164-0.3485 2.894 0.05689 2.164 1.202z" fill="#fff" fill-opacity=".02"/>
<path d="m1145.8 3.3458c-2.17 0.34138-2.88-0.06403-2.13-1.2233 2.18-0.32715 2.88 0.07826 2.13 1.2233z" fill="#fff" fill-opacity=".02"/>
<path d="m273.61 3.3709c-1.898 0.81789-4.235-0.92458-2.23-1.65 1.912-0.81078 4.262 0.93881 2.23 1.65z" fill="#fff" fill-opacity=".02"/>
<path d="m1222.7 0.0027262c2.2 1.8349-3.84 1.9558-2.47-2.2e-7l2.47 2.2e-7z" fill="#fff" fill-opacity=".02"/>
<path d="m225.74-3.6562e-4c-0.531 1.1379-1.314 1.1379-2.363-2.11e-7l2.363 2.11e-7z" fill="#fff" fill-opacity=".02"/>
<mask id="i" x="0" y="0" width="1320" height="532" style="mask-type:alpha" maskUnits="userSpaceOnUse">
<rect y="-6.1035e-5" width="1320" height="532" fill="#0C1D17"/>
</mask>
<g mask="url(#i)">
<g filter="url(#m)">
<ellipse cx="1141.2" cy="226.84" rx="61.188" ry="62.6" fill="#fff"/>
</g>
<g filter="url(#l)">
<ellipse cx="667.56" cy="27.433" rx="111.38" ry="22.859" fill="#fff" fill-opacity=".8"/>
</g>
<g filter="url(#k)">
<ellipse cx="222.75" cy="286.62" rx="46.062" ry="47.126" fill="#fff"/>
</g>
<rect x="58.781" y="222.26" width="109.31" height="111.85" rx="10.656" stroke="#fff" stroke-opacity=".04" stroke-width=".6875"/>
<rect x="58.781" y="446.63" width="109.31" height="111.85" rx="10.656" stroke="#fff" stroke-opacity=".04" stroke-width=".6875"/>
<rect x="496.03" y="446.63" width="109.31" height="111.85" rx="10.656" stroke="#fff" stroke-opacity=".04" stroke-width=".6875"/>
<rect x="933.28" y="222.26" width="109.31" height="111.85" rx="10.656" stroke="#fff" stroke-opacity=".04" stroke-width=".6875"/>
<rect x="933.28" y="446.63" width="109.31" height="111.85" rx="10.656" stroke="#fff" stroke-opacity=".04" stroke-width=".6875"/>
<rect x="277.41" y="222.26" width="109.31" height="111.85" rx="10.656" stroke="#fff" stroke-opacity=".04" stroke-width=".6875"/>
<rect x="277.41" y="446.63" width="109.31" height="111.85" rx="10.656" stroke="#fff" stroke-opacity=".04" stroke-width=".6875"/>
<rect x="714.66" y="446.63" width="109.31" height="111.85" rx="10.656" stroke="#fff" stroke-opacity=".04" stroke-width=".6875"/>
<rect x="1151.9" y="-2.1181" width="109.31" height="111.85" rx="10.656" stroke="#fff" stroke-opacity=".04" stroke-width=".6875"/>
<rect x="1151.9" y="222.26" width="109.31" height="111.85" rx="10.656" stroke="#fff" stroke-opacity=".04" stroke-width=".6875"/>
<rect x="1151.9" y="446.63" width="109.31" height="111.85" rx="10.656" stroke="#fff" stroke-opacity=".04" stroke-width=".6875"/>
<rect x="58.781" y="110.42" width="109.31" height="111.85" rx="10.656" stroke="#fff" stroke-opacity=".04" stroke-width=".6875"/>
<rect x="58.781" y="334.8" width="109.31" height="111.85" rx="10.656" stroke="#fff" stroke-opacity=".04" stroke-width=".6875"/>
<rect x="933.28" y="334.8" width="109.31" height="111.85" rx="10.656" stroke="#fff" stroke-opacity=".04" stroke-width=".6875"/>
<rect x="277.41" y="334.8" width="109.31" height="111.85" rx="10.656" stroke="#fff" stroke-opacity=".04" stroke-width=".6875"/>
<rect x="1151.9" y="110.42" width="109.31" height="111.85" rx="10.656" stroke="#fff" stroke-opacity=".04" stroke-width=".6875"/>
<rect x="1151.9" y="334.8" width="109.31" height="111.85" rx="10.656" stroke="#fff" stroke-opacity=".04" stroke-width=".6875"/>
<rect x="-50.875" y="-2.4618" width="110" height="112.54" rx="11" fill="url(#g)" fill-opacity=".05"/>
<rect x="-50.531" y="222.26" width="109.31" height="111.85" rx="10.656" stroke="#fff" stroke-opacity=".04" stroke-width=".6875"/>
<rect x="-50.875" y="446.28" width="110" height="112.54" rx="11" fill="url(#f)" fill-opacity=".05"/>
<rect x="386.72" y="446.63" width="109.31" height="111.85" rx="10.656" stroke="#fff" stroke-opacity=".04" stroke-width=".6875"/>
<rect x="823.97" y="446.63" width="109.31" height="111.85" rx="10.656" stroke="#fff" stroke-opacity=".04" stroke-width=".6875"/>
<rect x="168.09" y="-2.1181" width="109.31" height="111.85" rx="10.656" stroke="url(#e)" stroke-opacity=".04" stroke-width=".6875"/>
<rect x="58.781" y="-2.1181" width="109.31" height="111.85" rx="10.656" stroke="#fff" stroke-opacity=".04" stroke-width=".6875"/>
<rect x="167.75" y="221.91" width="110" height="112.54" rx="11" fill="url(#d)" fill-opacity=".05"/>
<rect x="168.09" y="446.63" width="109.31" height="111.85" rx="10.656" stroke="#fff" stroke-opacity=".04" stroke-width=".6875"/>
<rect x="605.34" y="446.63" width="109.31" height="111.85" rx="10.656" stroke="#fff" stroke-opacity=".04" stroke-width=".6875"/>
<rect x="1042.6" y="-2.1181" width="109.31" height="111.85" rx="10.656" stroke="url(#c)" stroke-opacity=".04" stroke-width=".6875"/>
<rect x="1042.6" y="222.26" width="109.31" height="111.85" rx="10.656" stroke="#fff" stroke-opacity=".04" stroke-width=".6875"/>
<rect x="1042.6" y="446.63" width="109.31" height="111.85" rx="10.656" stroke="#fff" stroke-opacity=".04" stroke-width=".6875"/>
<rect x="-50.531" y="110.42" width="109.31" height="111.85" rx="10.656" stroke="#fff" stroke-opacity=".04" stroke-width=".6875"/>
<rect x="-50.531" y="334.8" width="109.31" height="111.85" rx="10.656" stroke="#fff" stroke-opacity=".04" stroke-width=".6875"/>
<rect x="168.09" y="110.42" width="109.31" height="111.85" rx="10.656" stroke="#fff" stroke-opacity=".04" stroke-width=".6875"/>
<rect x="168.09" y="334.8" width="109.31" height="111.85" rx="10.656" stroke="#fff" stroke-opacity=".04" stroke-width=".6875"/>
<rect x="1042.2" y="110.08" width="110" height="112.54" rx="11" fill="url(#b)" fill-opacity=".05"/>
<rect x="1042.6" y="334.8" width="109.31" height="111.85" rx="10.656" stroke="#fff" stroke-opacity=".04" stroke-width=".6875"/>
<rect x="1261.2" y="-2.1181" width="109.31" height="111.85" rx="10.656" stroke="#fff" stroke-opacity=".04" stroke-width=".6875"/>
<rect x="1261.2" y="222.26" width="109.31" height="111.85" rx="10.656" stroke="#fff" stroke-opacity=".04" stroke-width=".6875"/>
<rect x="1261.2" y="446.63" width="109.31" height="111.85" rx="10.656" stroke="#fff" stroke-opacity=".04" stroke-width=".6875"/>
<rect x="1261.2" y="110.42" width="109.31" height="111.85" rx="10.656" stroke="#fff" stroke-opacity=".04" stroke-width=".6875"/>
<rect x="1260.9" y="334.45" width="110" height="112.54" rx="11" fill="url(#a)" fill-opacity=".05"/>
</g>
</g>
<defs>
<filter id="m" x="736.31" y="-179.51" width="809.88" height="812.7" color-interpolation-filters="sRGB" filterUnits="userSpaceOnUse">
<feFlood flood-opacity="0" result="BackgroundImageFix"/>
<feBlend in="SourceGraphic" in2="BackgroundImageFix" result="shape"/>
<feGaussianBlur result="effect1_foregroundBlur_1_2311" stdDeviation="171.875"/>
</filter>
<filter id="l" x="281.19" y="-270.43" width="772.75" height="595.72" color-interpolation-filters="sRGB" filterUnits="userSpaceOnUse">
<feFlood flood-opacity="0" result="BackgroundImageFix"/>
<feBlend in="SourceGraphic" in2="BackgroundImageFix" result="shape"/>
<feGaussianBlur result="effect1_foregroundBlur_1_2311" stdDeviation="137.5"/>
</filter>
<filter id="k" x="-167.06" y="-104.25" width="779.62" height="781.75" color-interpolation-filters="sRGB" filterUnits="userSpaceOnUse">
<feFlood flood-opacity="0" result="BackgroundImageFix"/>
<feBlend in="SourceGraphic" in2="BackgroundImageFix" result="shape"/>
<feGaussianBlur result="effect1_foregroundBlur_1_2311" stdDeviation="171.875"/>
</filter>
<linearGradient id="h" x1="660" x2="660" y1="-103.04" y2="635.49" gradientUnits="userSpaceOnUse">
<stop stop-color="#0E8F62" offset="0"/>
<stop stop-color="#1A503D" offset="1"/>
</linearGradient>
<linearGradient id="g" x1="54.656" x2="-32.187" y1="1.7583" y2="86.642" gradientUnits="userSpaceOnUse">
<stop stop-color="#fff" offset="0"/>
<stop stop-color="#fff" stop-opacity="0" offset=".51843"/>
</linearGradient>
<linearGradient id="f" x1="16.844" x2="60.258" y1="502.56" y2="452.18" gradientUnits="userSpaceOnUse">
<stop stop-color="#fff" stop-opacity="0" offset="0"/>
<stop stop-color="#fff" offset="1"/>
</linearGradient>
<linearGradient id="e" x1="167.75" x2="230.6" y1="110.08" y2="52.074" gradientUnits="userSpaceOnUse">
<stop stop-color="#fff" offset="0"/>
<stop stop-color="#fff" stop-opacity="0" offset="1"/>
</linearGradient>
<linearGradient id="d" x1="273.28" x2="120.35" y1="226.13" y2="360.87" gradientUnits="userSpaceOnUse">
<stop stop-color="#fff" stop-opacity="0" offset="0"/>
<stop stop-color="#fff" offset="1"/>
</linearGradient>
<linearGradient id="c" x1="1148.8" x2="1090.3" y1="107.97" y2="57.244" gradientUnits="userSpaceOnUse">
<stop stop-color="#fff" offset="0"/>
<stop stop-color="#fff" stop-opacity="0" offset="1"/>
</linearGradient>
<linearGradient id="b" x1="1147.8" x2="1060.9" y1="114.3" y2="199.18" gradientUnits="userSpaceOnUse">
<stop stop-color="#fff" offset=".0078684"/>
<stop stop-color="#fff" stop-opacity="0" offset="1"/>
</linearGradient>
<linearGradient id="a" x1="1298.3" x2="1280.8" y1="365.05" y2="425.33" gradientUnits="userSpaceOnUse">
<stop stop-color="#fff" stop-opacity="0" offset="0"/>
<stop stop-color="#fff" offset="1"/>
</linearGradient>
</defs>
</svg>
